<mxfile host="app.diagrams.net" modified="2023-02-18T14:39:20.189Z" agent="5.0 (Windows NT 10.0; Win64; x64) AppleWebKit/537.36 (KHTML, like Gecko) Chrome/110.0.0.0 Safari/537.36 Edg/110.0.1587.46" etag="ipeoUbq64W_TOlSlC7Hl" version="20.8.20" type="github">
  <diagram name="第 1 页" id="1uux79sV3O4K6FANvlzu">
    <mxGraphModel dx="2818" dy="2373" grid="1" gridSize="10" guides="1" tooltips="1" connect="1" arrows="1" fold="1" page="1" pageScale="1" pageWidth="827" pageHeight="1169" background="#ffffff" math="0" shadow="0">
      <root>
        <mxCell id="0" />
        <mxCell id="1" parent="0" />
        <mxCell id="eX8ZrraKsyN8Ze18W8im-1" value="" style="shape=table;startSize=0;container=1;collapsible=0;childLayout=tableLayout;" vertex="1" parent="1">
          <mxGeometry x="-710" y="230" width="190" height="236" as="geometry" />
        </mxCell>
        <mxCell id="eX8ZrraKsyN8Ze18W8im-2" value="" style="shape=tableRow;horizontal=0;startSize=0;swimlaneHead=0;swimlaneBody=0;strokeColor=inherit;top=0;left=0;bottom=0;right=0;collapsible=0;dropTarget=0;fillColor=none;points=[[0,0.5],[1,0.5]];portConstraint=eastwest;" vertex="1" parent="eX8ZrraKsyN8Ze18W8im-1">
          <mxGeometry width="190" height="35" as="geometry" />
        </mxCell>
        <mxCell id="eX8ZrraKsyN8Ze18W8im-3" value="" style="shape=partialRectangle;html=1;whiteSpace=wrap;connectable=0;strokeColor=inherit;overflow=hidden;fillColor=none;top=0;left=0;bottom=0;right=0;pointerEvents=1;" vertex="1" parent="eX8ZrraKsyN8Ze18W8im-2">
          <mxGeometry width="38" height="35" as="geometry">
            <mxRectangle width="38" height="35" as="alternateBounds" />
          </mxGeometry>
        </mxCell>
        <mxCell id="eX8ZrraKsyN8Ze18W8im-4" value="" style="shape=partialRectangle;html=1;whiteSpace=wrap;connectable=0;strokeColor=inherit;overflow=hidden;fillColor=none;top=0;left=0;bottom=0;right=0;pointerEvents=1;" vertex="1" parent="eX8ZrraKsyN8Ze18W8im-2">
          <mxGeometry x="38" width="38" height="35" as="geometry">
            <mxRectangle width="38" height="35" as="alternateBounds" />
          </mxGeometry>
        </mxCell>
        <mxCell id="eX8ZrraKsyN8Ze18W8im-5" value="" style="shape=partialRectangle;html=1;whiteSpace=wrap;connectable=0;strokeColor=inherit;overflow=hidden;fillColor=none;top=0;left=0;bottom=0;right=0;pointerEvents=1;" vertex="1" parent="eX8ZrraKsyN8Ze18W8im-2">
          <mxGeometry x="76" width="38" height="35" as="geometry">
            <mxRectangle width="38" height="35" as="alternateBounds" />
          </mxGeometry>
        </mxCell>
        <mxCell id="eX8ZrraKsyN8Ze18W8im-6" value="" style="shape=partialRectangle;html=1;whiteSpace=wrap;connectable=0;strokeColor=inherit;overflow=hidden;fillColor=none;top=0;left=0;bottom=0;right=0;pointerEvents=1;" vertex="1" parent="eX8ZrraKsyN8Ze18W8im-2">
          <mxGeometry x="114" width="38" height="35" as="geometry">
            <mxRectangle width="38" height="35" as="alternateBounds" />
          </mxGeometry>
        </mxCell>
        <mxCell id="eX8ZrraKsyN8Ze18W8im-7" value="" style="shape=partialRectangle;html=1;whiteSpace=wrap;connectable=0;strokeColor=inherit;overflow=hidden;fillColor=none;top=0;left=0;bottom=0;right=0;pointerEvents=1;" vertex="1" parent="eX8ZrraKsyN8Ze18W8im-2">
          <mxGeometry x="152" width="38" height="35" as="geometry">
            <mxRectangle width="38" height="35" as="alternateBounds" />
          </mxGeometry>
        </mxCell>
        <mxCell id="eX8ZrraKsyN8Ze18W8im-8" value="" style="shape=tableRow;horizontal=0;startSize=0;swimlaneHead=0;swimlaneBody=0;strokeColor=inherit;top=0;left=0;bottom=0;right=0;collapsible=0;dropTarget=0;fillColor=none;points=[[0,0.5],[1,0.5]];portConstraint=eastwest;" vertex="1" parent="eX8ZrraKsyN8Ze18W8im-1">
          <mxGeometry y="35" width="190" height="33" as="geometry" />
        </mxCell>
        <mxCell id="eX8ZrraKsyN8Ze18W8im-9" value="" style="shape=partialRectangle;html=1;whiteSpace=wrap;connectable=0;strokeColor=inherit;overflow=hidden;fillColor=none;top=0;left=0;bottom=0;right=0;pointerEvents=1;" vertex="1" parent="eX8ZrraKsyN8Ze18W8im-8">
          <mxGeometry width="38" height="33" as="geometry">
            <mxRectangle width="38" height="33" as="alternateBounds" />
          </mxGeometry>
        </mxCell>
        <mxCell id="eX8ZrraKsyN8Ze18W8im-10" value="" style="shape=partialRectangle;html=1;whiteSpace=wrap;connectable=0;strokeColor=inherit;overflow=hidden;fillColor=none;top=0;left=0;bottom=0;right=0;pointerEvents=1;" vertex="1" parent="eX8ZrraKsyN8Ze18W8im-8">
          <mxGeometry x="38" width="38" height="33" as="geometry">
            <mxRectangle width="38" height="33" as="alternateBounds" />
          </mxGeometry>
        </mxCell>
        <mxCell id="eX8ZrraKsyN8Ze18W8im-11" value="" style="shape=partialRectangle;html=1;whiteSpace=wrap;connectable=0;strokeColor=inherit;overflow=hidden;fillColor=none;top=0;left=0;bottom=0;right=0;pointerEvents=1;" vertex="1" parent="eX8ZrraKsyN8Ze18W8im-8">
          <mxGeometry x="76" width="38" height="33" as="geometry">
            <mxRectangle width="38" height="33" as="alternateBounds" />
          </mxGeometry>
        </mxCell>
        <mxCell id="eX8ZrraKsyN8Ze18W8im-12" value="" style="shape=partialRectangle;html=1;whiteSpace=wrap;connectable=0;strokeColor=inherit;overflow=hidden;fillColor=none;top=0;left=0;bottom=0;right=0;pointerEvents=1;" vertex="1" parent="eX8ZrraKsyN8Ze18W8im-8">
          <mxGeometry x="114" width="38" height="33" as="geometry">
            <mxRectangle width="38" height="33" as="alternateBounds" />
          </mxGeometry>
        </mxCell>
        <mxCell id="eX8ZrraKsyN8Ze18W8im-13" value="" style="shape=partialRectangle;html=1;whiteSpace=wrap;connectable=0;strokeColor=inherit;overflow=hidden;fillColor=none;top=0;left=0;bottom=0;right=0;pointerEvents=1;" vertex="1" parent="eX8ZrraKsyN8Ze18W8im-8">
          <mxGeometry x="152" width="38" height="33" as="geometry">
            <mxRectangle width="38" height="33" as="alternateBounds" />
          </mxGeometry>
        </mxCell>
        <mxCell id="eX8ZrraKsyN8Ze18W8im-14" value="" style="shape=tableRow;horizontal=0;startSize=0;swimlaneHead=0;swimlaneBody=0;strokeColor=inherit;top=0;left=0;bottom=0;right=0;collapsible=0;dropTarget=0;fillColor=none;points=[[0,0.5],[1,0.5]];portConstraint=eastwest;" vertex="1" parent="eX8ZrraKsyN8Ze18W8im-1">
          <mxGeometry y="68" width="190" height="35" as="geometry" />
        </mxCell>
        <mxCell id="eX8ZrraKsyN8Ze18W8im-15" value="" style="shape=partialRectangle;html=1;whiteSpace=wrap;connectable=0;strokeColor=inherit;overflow=hidden;fillColor=none;top=0;left=0;bottom=0;right=0;pointerEvents=1;" vertex="1" parent="eX8ZrraKsyN8Ze18W8im-14">
          <mxGeometry width="38" height="35" as="geometry">
            <mxRectangle width="38" height="35" as="alternateBounds" />
          </mxGeometry>
        </mxCell>
        <mxCell id="eX8ZrraKsyN8Ze18W8im-16" value="" style="shape=partialRectangle;html=1;whiteSpace=wrap;connectable=0;strokeColor=inherit;overflow=hidden;fillColor=none;top=0;left=0;bottom=0;right=0;pointerEvents=1;" vertex="1" parent="eX8ZrraKsyN8Ze18W8im-14">
          <mxGeometry x="38" width="38" height="35" as="geometry">
            <mxRectangle width="38" height="35" as="alternateBounds" />
          </mxGeometry>
        </mxCell>
        <mxCell id="eX8ZrraKsyN8Ze18W8im-17" value="" style="shape=partialRectangle;html=1;whiteSpace=wrap;connectable=0;strokeColor=inherit;overflow=hidden;fillColor=none;top=0;left=0;bottom=0;right=0;pointerEvents=1;" vertex="1" parent="eX8ZrraKsyN8Ze18W8im-14">
          <mxGeometry x="76" width="38" height="35" as="geometry">
            <mxRectangle width="38" height="35" as="alternateBounds" />
          </mxGeometry>
        </mxCell>
        <mxCell id="eX8ZrraKsyN8Ze18W8im-18" value="" style="shape=partialRectangle;html=1;whiteSpace=wrap;connectable=0;strokeColor=inherit;overflow=hidden;fillColor=none;top=0;left=0;bottom=0;right=0;pointerEvents=1;" vertex="1" parent="eX8ZrraKsyN8Ze18W8im-14">
          <mxGeometry x="114" width="38" height="35" as="geometry">
            <mxRectangle width="38" height="35" as="alternateBounds" />
          </mxGeometry>
        </mxCell>
        <mxCell id="eX8ZrraKsyN8Ze18W8im-19" value="" style="shape=partialRectangle;html=1;whiteSpace=wrap;connectable=0;strokeColor=inherit;overflow=hidden;fillColor=none;top=0;left=0;bottom=0;right=0;pointerEvents=1;" vertex="1" parent="eX8ZrraKsyN8Ze18W8im-14">
          <mxGeometry x="152" width="38" height="35" as="geometry">
            <mxRectangle width="38" height="35" as="alternateBounds" />
          </mxGeometry>
        </mxCell>
        <mxCell id="eX8ZrraKsyN8Ze18W8im-20" value="" style="shape=tableRow;horizontal=0;startSize=0;swimlaneHead=0;swimlaneBody=0;strokeColor=inherit;top=0;left=0;bottom=0;right=0;collapsible=0;dropTarget=0;fillColor=none;points=[[0,0.5],[1,0.5]];portConstraint=eastwest;" vertex="1" parent="eX8ZrraKsyN8Ze18W8im-1">
          <mxGeometry y="103" width="190" height="30" as="geometry" />
        </mxCell>
        <mxCell id="eX8ZrraKsyN8Ze18W8im-21" value="" style="shape=partialRectangle;html=1;whiteSpace=wrap;connectable=0;strokeColor=inherit;overflow=hidden;fillColor=none;top=0;left=0;bottom=0;right=0;pointerEvents=1;" vertex="1" parent="eX8ZrraKsyN8Ze18W8im-20">
          <mxGeometry width="38" height="30" as="geometry">
            <mxRectangle width="38" height="30" as="alternateBounds" />
          </mxGeometry>
        </mxCell>
        <mxCell id="eX8ZrraKsyN8Ze18W8im-22" value="" style="shape=partialRectangle;html=1;whiteSpace=wrap;connectable=0;strokeColor=inherit;overflow=hidden;fillColor=none;top=0;left=0;bottom=0;right=0;pointerEvents=1;" vertex="1" parent="eX8ZrraKsyN8Ze18W8im-20">
          <mxGeometry x="38" width="38" height="30" as="geometry">
            <mxRectangle width="38" height="30" as="alternateBounds" />
          </mxGeometry>
        </mxCell>
        <mxCell id="eX8ZrraKsyN8Ze18W8im-23" value="" style="shape=partialRectangle;html=1;whiteSpace=wrap;connectable=0;strokeColor=inherit;overflow=hidden;fillColor=none;top=0;left=0;bottom=0;right=0;pointerEvents=1;" vertex="1" parent="eX8ZrraKsyN8Ze18W8im-20">
          <mxGeometry x="76" width="38" height="30" as="geometry">
            <mxRectangle width="38" height="30" as="alternateBounds" />
          </mxGeometry>
        </mxCell>
        <mxCell id="eX8ZrraKsyN8Ze18W8im-24" value="" style="shape=partialRectangle;html=1;whiteSpace=wrap;connectable=0;strokeColor=inherit;overflow=hidden;fillColor=none;top=0;left=0;bottom=0;right=0;pointerEvents=1;" vertex="1" parent="eX8ZrraKsyN8Ze18W8im-20">
          <mxGeometry x="114" width="38" height="30" as="geometry">
            <mxRectangle width="38" height="30" as="alternateBounds" />
          </mxGeometry>
        </mxCell>
        <mxCell id="eX8ZrraKsyN8Ze18W8im-25" value="" style="shape=partialRectangle;html=1;whiteSpace=wrap;connectable=0;strokeColor=inherit;overflow=hidden;fillColor=none;top=0;left=0;bottom=0;right=0;pointerEvents=1;" vertex="1" parent="eX8ZrraKsyN8Ze18W8im-20">
          <mxGeometry x="152" width="38" height="30" as="geometry">
            <mxRectangle width="38" height="30" as="alternateBounds" />
          </mxGeometry>
        </mxCell>
        <mxCell id="eX8ZrraKsyN8Ze18W8im-26" value="" style="shape=tableRow;horizontal=0;startSize=0;swimlaneHead=0;swimlaneBody=0;strokeColor=inherit;top=0;left=0;bottom=0;right=0;collapsible=0;dropTarget=0;fillColor=none;points=[[0,0.5],[1,0.5]];portConstraint=eastwest;" vertex="1" parent="eX8ZrraKsyN8Ze18W8im-1">
          <mxGeometry y="133" width="190" height="35" as="geometry" />
        </mxCell>
        <mxCell id="eX8ZrraKsyN8Ze18W8im-27" value="" style="shape=partialRectangle;html=1;whiteSpace=wrap;connectable=0;strokeColor=inherit;overflow=hidden;fillColor=none;top=0;left=0;bottom=0;right=0;pointerEvents=1;" vertex="1" parent="eX8ZrraKsyN8Ze18W8im-26">
          <mxGeometry width="38" height="35" as="geometry">
            <mxRectangle width="38" height="35" as="alternateBounds" />
          </mxGeometry>
        </mxCell>
        <mxCell id="eX8ZrraKsyN8Ze18W8im-28" value="" style="shape=partialRectangle;html=1;whiteSpace=wrap;connectable=0;strokeColor=inherit;overflow=hidden;fillColor=none;top=0;left=0;bottom=0;right=0;pointerEvents=1;" vertex="1" parent="eX8ZrraKsyN8Ze18W8im-26">
          <mxGeometry x="38" width="38" height="35" as="geometry">
            <mxRectangle width="38" height="35" as="alternateBounds" />
          </mxGeometry>
        </mxCell>
        <mxCell id="eX8ZrraKsyN8Ze18W8im-29" value="" style="shape=partialRectangle;html=1;whiteSpace=wrap;connectable=0;strokeColor=inherit;overflow=hidden;fillColor=none;top=0;left=0;bottom=0;right=0;pointerEvents=1;" vertex="1" parent="eX8ZrraKsyN8Ze18W8im-26">
          <mxGeometry x="76" width="38" height="35" as="geometry">
            <mxRectangle width="38" height="35" as="alternateBounds" />
          </mxGeometry>
        </mxCell>
        <mxCell id="eX8ZrraKsyN8Ze18W8im-30" value="" style="shape=partialRectangle;html=1;whiteSpace=wrap;connectable=0;strokeColor=inherit;overflow=hidden;fillColor=none;top=0;left=0;bottom=0;right=0;pointerEvents=1;" vertex="1" parent="eX8ZrraKsyN8Ze18W8im-26">
          <mxGeometry x="114" width="38" height="35" as="geometry">
            <mxRectangle width="38" height="35" as="alternateBounds" />
          </mxGeometry>
        </mxCell>
        <mxCell id="eX8ZrraKsyN8Ze18W8im-31" value="" style="shape=partialRectangle;html=1;whiteSpace=wrap;connectable=0;strokeColor=inherit;overflow=hidden;fillColor=none;top=0;left=0;bottom=0;right=0;pointerEvents=1;" vertex="1" parent="eX8ZrraKsyN8Ze18W8im-26">
          <mxGeometry x="152" width="38" height="35" as="geometry">
            <mxRectangle width="38" height="35" as="alternateBounds" />
          </mxGeometry>
        </mxCell>
        <mxCell id="eX8ZrraKsyN8Ze18W8im-32" value="" style="shape=tableRow;horizontal=0;startSize=0;swimlaneHead=0;swimlaneBody=0;strokeColor=inherit;top=0;left=0;bottom=0;right=0;collapsible=0;dropTarget=0;fillColor=none;points=[[0,0.5],[1,0.5]];portConstraint=eastwest;" vertex="1" parent="eX8ZrraKsyN8Ze18W8im-1">
          <mxGeometry y="168" width="190" height="33" as="geometry" />
        </mxCell>
        <mxCell id="eX8ZrraKsyN8Ze18W8im-33" value="" style="shape=partialRectangle;html=1;whiteSpace=wrap;connectable=0;strokeColor=inherit;overflow=hidden;fillColor=none;top=0;left=0;bottom=0;right=0;pointerEvents=1;" vertex="1" parent="eX8ZrraKsyN8Ze18W8im-32">
          <mxGeometry width="38" height="33" as="geometry">
            <mxRectangle width="38" height="33" as="alternateBounds" />
          </mxGeometry>
        </mxCell>
        <mxCell id="eX8ZrraKsyN8Ze18W8im-34" value="" style="shape=partialRectangle;html=1;whiteSpace=wrap;connectable=0;strokeColor=inherit;overflow=hidden;fillColor=none;top=0;left=0;bottom=0;right=0;pointerEvents=1;" vertex="1" parent="eX8ZrraKsyN8Ze18W8im-32">
          <mxGeometry x="38" width="38" height="33" as="geometry">
            <mxRectangle width="38" height="33" as="alternateBounds" />
          </mxGeometry>
        </mxCell>
        <mxCell id="eX8ZrraKsyN8Ze18W8im-35" value="" style="shape=partialRectangle;html=1;whiteSpace=wrap;connectable=0;strokeColor=inherit;overflow=hidden;fillColor=none;top=0;left=0;bottom=0;right=0;pointerEvents=1;" vertex="1" parent="eX8ZrraKsyN8Ze18W8im-32">
          <mxGeometry x="76" width="38" height="33" as="geometry">
            <mxRectangle width="38" height="33" as="alternateBounds" />
          </mxGeometry>
        </mxCell>
        <mxCell id="eX8ZrraKsyN8Ze18W8im-36" value="" style="shape=partialRectangle;html=1;whiteSpace=wrap;connectable=0;strokeColor=inherit;overflow=hidden;fillColor=none;top=0;left=0;bottom=0;right=0;pointerEvents=1;" vertex="1" parent="eX8ZrraKsyN8Ze18W8im-32">
          <mxGeometry x="114" width="38" height="33" as="geometry">
            <mxRectangle width="38" height="33" as="alternateBounds" />
          </mxGeometry>
        </mxCell>
        <mxCell id="eX8ZrraKsyN8Ze18W8im-37" value="" style="shape=partialRectangle;html=1;whiteSpace=wrap;connectable=0;strokeColor=inherit;overflow=hidden;fillColor=none;top=0;left=0;bottom=0;right=0;pointerEvents=1;" vertex="1" parent="eX8ZrraKsyN8Ze18W8im-32">
          <mxGeometry x="152" width="38" height="33" as="geometry">
            <mxRectangle width="38" height="33" as="alternateBounds" />
          </mxGeometry>
        </mxCell>
        <mxCell id="eX8ZrraKsyN8Ze18W8im-38" value="" style="shape=tableRow;horizontal=0;startSize=0;swimlaneHead=0;swimlaneBody=0;strokeColor=inherit;top=0;left=0;bottom=0;right=0;collapsible=0;dropTarget=0;fillColor=none;points=[[0,0.5],[1,0.5]];portConstraint=eastwest;" vertex="1" parent="eX8ZrraKsyN8Ze18W8im-1">
          <mxGeometry y="201" width="190" height="35" as="geometry" />
        </mxCell>
        <mxCell id="eX8ZrraKsyN8Ze18W8im-39" value="" style="shape=partialRectangle;html=1;whiteSpace=wrap;connectable=0;strokeColor=inherit;overflow=hidden;fillColor=none;top=0;left=0;bottom=0;right=0;pointerEvents=1;" vertex="1" parent="eX8ZrraKsyN8Ze18W8im-38">
          <mxGeometry width="38" height="35" as="geometry">
            <mxRectangle width="38" height="35" as="alternateBounds" />
          </mxGeometry>
        </mxCell>
        <mxCell id="eX8ZrraKsyN8Ze18W8im-40" value="" style="shape=partialRectangle;html=1;whiteSpace=wrap;connectable=0;strokeColor=inherit;overflow=hidden;fillColor=none;top=0;left=0;bottom=0;right=0;pointerEvents=1;" vertex="1" parent="eX8ZrraKsyN8Ze18W8im-38">
          <mxGeometry x="38" width="38" height="35" as="geometry">
            <mxRectangle width="38" height="35" as="alternateBounds" />
          </mxGeometry>
        </mxCell>
        <mxCell id="eX8ZrraKsyN8Ze18W8im-41" value="" style="shape=partialRectangle;html=1;whiteSpace=wrap;connectable=0;strokeColor=inherit;overflow=hidden;fillColor=none;top=0;left=0;bottom=0;right=0;pointerEvents=1;" vertex="1" parent="eX8ZrraKsyN8Ze18W8im-38">
          <mxGeometry x="76" width="38" height="35" as="geometry">
            <mxRectangle width="38" height="35" as="alternateBounds" />
          </mxGeometry>
        </mxCell>
        <mxCell id="eX8ZrraKsyN8Ze18W8im-42" value="" style="shape=partialRectangle;html=1;whiteSpace=wrap;connectable=0;strokeColor=inherit;overflow=hidden;fillColor=none;top=0;left=0;bottom=0;right=0;pointerEvents=1;" vertex="1" parent="eX8ZrraKsyN8Ze18W8im-38">
          <mxGeometry x="114" width="38" height="35" as="geometry">
            <mxRectangle width="38" height="35" as="alternateBounds" />
          </mxGeometry>
        </mxCell>
        <mxCell id="eX8ZrraKsyN8Ze18W8im-43" value="" style="shape=partialRectangle;html=1;whiteSpace=wrap;connectable=0;strokeColor=inherit;overflow=hidden;fillColor=none;top=0;left=0;bottom=0;right=0;pointerEvents=1;" vertex="1" parent="eX8ZrraKsyN8Ze18W8im-38">
          <mxGeometry x="152" width="38" height="35" as="geometry">
            <mxRectangle width="38" height="35" as="alternateBounds" />
          </mxGeometry>
        </mxCell>
        <mxCell id="eX8ZrraKsyN8Ze18W8im-44" value="This" style="text;html=1;align=center;verticalAlign=middle;resizable=0;points=[];autosize=1;strokeColor=none;fillColor=none;" vertex="1" parent="1">
          <mxGeometry x="-760" y="235" width="50" height="30" as="geometry" />
        </mxCell>
        <mxCell id="eX8ZrraKsyN8Ze18W8im-45" value="is" style="text;html=1;align=center;verticalAlign=middle;resizable=0;points=[];autosize=1;strokeColor=none;fillColor=none;" vertex="1" parent="1">
          <mxGeometry x="-750" y="265" width="30" height="30" as="geometry" />
        </mxCell>
        <mxCell id="eX8ZrraKsyN8Ze18W8im-46" value="a" style="text;html=1;align=center;verticalAlign=middle;resizable=0;points=[];autosize=1;strokeColor=none;fillColor=none;" vertex="1" parent="1">
          <mxGeometry x="-750" y="301" width="30" height="30" as="geometry" />
        </mxCell>
        <mxCell id="eX8ZrraKsyN8Ze18W8im-47" value="well" style="text;html=1;align=center;verticalAlign=middle;resizable=0;points=[];autosize=1;strokeColor=none;fillColor=none;" vertex="1" parent="1">
          <mxGeometry x="-755" y="335" width="40" height="30" as="geometry" />
        </mxCell>
        <mxCell id="eX8ZrraKsyN8Ze18W8im-48" value="written" style="text;html=1;align=center;verticalAlign=middle;resizable=0;points=[];autosize=1;strokeColor=none;fillColor=none;" vertex="1" parent="1">
          <mxGeometry x="-765" y="371" width="60" height="30" as="geometry" />
        </mxCell>
        <mxCell id="eX8ZrraKsyN8Ze18W8im-49" value="paper" style="text;html=1;align=center;verticalAlign=middle;resizable=0;points=[];autosize=1;strokeColor=none;fillColor=none;" vertex="1" parent="1">
          <mxGeometry x="-760" y="404" width="50" height="30" as="geometry" />
        </mxCell>
        <mxCell id="eX8ZrraKsyN8Ze18W8im-50" value="!" style="text;html=1;align=center;verticalAlign=middle;resizable=0;points=[];autosize=1;strokeColor=none;fillColor=none;" vertex="1" parent="1">
          <mxGeometry x="-750" y="440" width="30" height="30" as="geometry" />
        </mxCell>
        <mxCell id="eX8ZrraKsyN8Ze18W8im-51" value="d = 5" style="text;html=1;align=center;verticalAlign=middle;resizable=0;points=[];autosize=1;strokeColor=none;fillColor=none;" vertex="1" parent="1">
          <mxGeometry x="-650" y="200" width="50" height="30" as="geometry" />
        </mxCell>
        <mxCell id="eX8ZrraKsyN8Ze18W8im-72" value="" style="shape=table;startSize=0;container=1;collapsible=0;childLayout=tableLayout;fillColor=#a0522d;swimlaneFillColor=none;strokeColor=#6D1F00;fillStyle=auto;labelBackgroundColor=#CC6600;fontColor=#ffffff;" vertex="1" parent="1">
          <mxGeometry x="-470" y="30" width="150" height="120" as="geometry" />
        </mxCell>
        <mxCell id="eX8ZrraKsyN8Ze18W8im-73" value="" style="shape=tableRow;horizontal=0;startSize=0;swimlaneHead=0;swimlaneBody=0;strokeColor=#000000;top=0;left=0;bottom=0;right=0;collapsible=0;dropTarget=0;fillColor=none;points=[[0,0.5],[1,0.5]];portConstraint=eastwest;swimlaneFillColor=none;fontColor=#ffffff;fillStyle=auto;labelBackgroundColor=#CC6600;" vertex="1" parent="eX8ZrraKsyN8Ze18W8im-72">
          <mxGeometry width="150" height="30" as="geometry" />
        </mxCell>
        <mxCell id="eX8ZrraKsyN8Ze18W8im-74" value="" style="shape=partialRectangle;html=1;whiteSpace=wrap;connectable=0;strokeColor=#000000;overflow=hidden;fillColor=none;top=0;left=0;bottom=0;right=0;pointerEvents=1;swimlaneFillColor=none;fontColor=#ffffff;fillStyle=auto;labelBackgroundColor=#CC6600;" vertex="1" parent="eX8ZrraKsyN8Ze18W8im-73">
          <mxGeometry width="30" height="30" as="geometry">
            <mxRectangle width="30" height="30" as="alternateBounds" />
          </mxGeometry>
        </mxCell>
        <mxCell id="eX8ZrraKsyN8Ze18W8im-75" value="" style="shape=partialRectangle;html=1;whiteSpace=wrap;connectable=0;strokeColor=#000000;overflow=hidden;fillColor=none;top=0;left=0;bottom=0;right=0;pointerEvents=1;swimlaneFillColor=none;fontColor=#ffffff;fillStyle=auto;labelBackgroundColor=#CC6600;" vertex="1" parent="eX8ZrraKsyN8Ze18W8im-73">
          <mxGeometry x="30" width="30" height="30" as="geometry">
            <mxRectangle width="30" height="30" as="alternateBounds" />
          </mxGeometry>
        </mxCell>
        <mxCell id="eX8ZrraKsyN8Ze18W8im-76" value="" style="shape=partialRectangle;html=1;whiteSpace=wrap;connectable=0;strokeColor=#000000;overflow=hidden;fillColor=none;top=0;left=0;bottom=0;right=0;pointerEvents=1;swimlaneFillColor=none;fontColor=#ffffff;fillStyle=auto;labelBackgroundColor=#CC6600;" vertex="1" parent="eX8ZrraKsyN8Ze18W8im-73">
          <mxGeometry x="60" width="30" height="30" as="geometry">
            <mxRectangle width="30" height="30" as="alternateBounds" />
          </mxGeometry>
        </mxCell>
        <mxCell id="eX8ZrraKsyN8Ze18W8im-77" value="" style="shape=partialRectangle;html=1;whiteSpace=wrap;connectable=0;strokeColor=#000000;overflow=hidden;fillColor=none;top=0;left=0;bottom=0;right=0;pointerEvents=1;swimlaneFillColor=none;fontColor=#ffffff;fillStyle=auto;labelBackgroundColor=#CC6600;" vertex="1" parent="eX8ZrraKsyN8Ze18W8im-73">
          <mxGeometry x="90" width="30" height="30" as="geometry">
            <mxRectangle width="30" height="30" as="alternateBounds" />
          </mxGeometry>
        </mxCell>
        <mxCell id="eX8ZrraKsyN8Ze18W8im-78" value="" style="shape=partialRectangle;html=1;whiteSpace=wrap;connectable=0;strokeColor=#000000;overflow=hidden;fillColor=none;top=0;left=0;bottom=0;right=0;pointerEvents=1;swimlaneFillColor=none;fontColor=#ffffff;fillStyle=auto;labelBackgroundColor=#CC6600;" vertex="1" parent="eX8ZrraKsyN8Ze18W8im-73">
          <mxGeometry x="120" width="30" height="30" as="geometry">
            <mxRectangle width="30" height="30" as="alternateBounds" />
          </mxGeometry>
        </mxCell>
        <mxCell id="eX8ZrraKsyN8Ze18W8im-79" value="" style="shape=tableRow;horizontal=0;startSize=0;swimlaneHead=0;swimlaneBody=0;strokeColor=#000000;top=0;left=0;bottom=0;right=0;collapsible=0;dropTarget=0;fillColor=none;points=[[0,0.5],[1,0.5]];portConstraint=eastwest;swimlaneFillColor=none;fontColor=#ffffff;fillStyle=auto;labelBackgroundColor=#CC6600;" vertex="1" parent="eX8ZrraKsyN8Ze18W8im-72">
          <mxGeometry y="30" width="150" height="30" as="geometry" />
        </mxCell>
        <mxCell id="eX8ZrraKsyN8Ze18W8im-80" value="" style="shape=partialRectangle;html=1;whiteSpace=wrap;connectable=0;strokeColor=#000000;overflow=hidden;fillColor=none;top=0;left=0;bottom=0;right=0;pointerEvents=1;swimlaneFillColor=none;fontColor=#ffffff;fillStyle=auto;labelBackgroundColor=#CC6600;" vertex="1" parent="eX8ZrraKsyN8Ze18W8im-79">
          <mxGeometry width="30" height="30" as="geometry">
            <mxRectangle width="30" height="30" as="alternateBounds" />
          </mxGeometry>
        </mxCell>
        <mxCell id="eX8ZrraKsyN8Ze18W8im-81" value="" style="shape=partialRectangle;html=1;whiteSpace=wrap;connectable=0;strokeColor=#000000;overflow=hidden;fillColor=none;top=0;left=0;bottom=0;right=0;pointerEvents=1;swimlaneFillColor=none;fontColor=#ffffff;fillStyle=auto;labelBackgroundColor=#CC6600;" vertex="1" parent="eX8ZrraKsyN8Ze18W8im-79">
          <mxGeometry x="30" width="30" height="30" as="geometry">
            <mxRectangle width="30" height="30" as="alternateBounds" />
          </mxGeometry>
        </mxCell>
        <mxCell id="eX8ZrraKsyN8Ze18W8im-82" value="" style="shape=partialRectangle;html=1;whiteSpace=wrap;connectable=0;strokeColor=#000000;overflow=hidden;fillColor=none;top=0;left=0;bottom=0;right=0;pointerEvents=1;swimlaneFillColor=none;fontColor=#ffffff;fillStyle=auto;labelBackgroundColor=#CC6600;" vertex="1" parent="eX8ZrraKsyN8Ze18W8im-79">
          <mxGeometry x="60" width="30" height="30" as="geometry">
            <mxRectangle width="30" height="30" as="alternateBounds" />
          </mxGeometry>
        </mxCell>
        <mxCell id="eX8ZrraKsyN8Ze18W8im-83" value="" style="shape=partialRectangle;html=1;whiteSpace=wrap;connectable=0;strokeColor=#000000;overflow=hidden;fillColor=none;top=0;left=0;bottom=0;right=0;pointerEvents=1;swimlaneFillColor=none;fontColor=#ffffff;fillStyle=auto;labelBackgroundColor=#CC6600;" vertex="1" parent="eX8ZrraKsyN8Ze18W8im-79">
          <mxGeometry x="90" width="30" height="30" as="geometry">
            <mxRectangle width="30" height="30" as="alternateBounds" />
          </mxGeometry>
        </mxCell>
        <mxCell id="eX8ZrraKsyN8Ze18W8im-84" value="" style="shape=partialRectangle;html=1;whiteSpace=wrap;connectable=0;strokeColor=#000000;overflow=hidden;fillColor=none;top=0;left=0;bottom=0;right=0;pointerEvents=1;swimlaneFillColor=none;fontColor=#ffffff;fillStyle=auto;labelBackgroundColor=#CC6600;" vertex="1" parent="eX8ZrraKsyN8Ze18W8im-79">
          <mxGeometry x="120" width="30" height="30" as="geometry">
            <mxRectangle width="30" height="30" as="alternateBounds" />
          </mxGeometry>
        </mxCell>
        <mxCell id="eX8ZrraKsyN8Ze18W8im-85" value="" style="shape=tableRow;horizontal=0;startSize=0;swimlaneHead=0;swimlaneBody=0;strokeColor=#000000;top=0;left=0;bottom=0;right=0;collapsible=0;dropTarget=0;fillColor=none;points=[[0,0.5],[1,0.5]];portConstraint=eastwest;swimlaneFillColor=none;fontColor=#ffffff;fillStyle=auto;labelBackgroundColor=#CC6600;" vertex="1" parent="eX8ZrraKsyN8Ze18W8im-72">
          <mxGeometry y="60" width="150" height="30" as="geometry" />
        </mxCell>
        <mxCell id="eX8ZrraKsyN8Ze18W8im-86" value="" style="shape=partialRectangle;html=1;whiteSpace=wrap;connectable=0;strokeColor=#000000;overflow=hidden;fillColor=none;top=0;left=0;bottom=0;right=0;pointerEvents=1;swimlaneFillColor=none;fontColor=#ffffff;fillStyle=auto;labelBackgroundColor=#CC6600;" vertex="1" parent="eX8ZrraKsyN8Ze18W8im-85">
          <mxGeometry width="30" height="30" as="geometry">
            <mxRectangle width="30" height="30" as="alternateBounds" />
          </mxGeometry>
        </mxCell>
        <mxCell id="eX8ZrraKsyN8Ze18W8im-87" value="" style="shape=partialRectangle;html=1;whiteSpace=wrap;connectable=0;strokeColor=#000000;overflow=hidden;fillColor=none;top=0;left=0;bottom=0;right=0;pointerEvents=1;swimlaneFillColor=none;fontColor=#ffffff;fillStyle=auto;labelBackgroundColor=#CC6600;" vertex="1" parent="eX8ZrraKsyN8Ze18W8im-85">
          <mxGeometry x="30" width="30" height="30" as="geometry">
            <mxRectangle width="30" height="30" as="alternateBounds" />
          </mxGeometry>
        </mxCell>
        <mxCell id="eX8ZrraKsyN8Ze18W8im-88" value="" style="shape=partialRectangle;html=1;whiteSpace=wrap;connectable=0;strokeColor=#000000;overflow=hidden;fillColor=none;top=0;left=0;bottom=0;right=0;pointerEvents=1;swimlaneFillColor=none;fontColor=#ffffff;fillStyle=auto;labelBackgroundColor=#CC6600;" vertex="1" parent="eX8ZrraKsyN8Ze18W8im-85">
          <mxGeometry x="60" width="30" height="30" as="geometry">
            <mxRectangle width="30" height="30" as="alternateBounds" />
          </mxGeometry>
        </mxCell>
        <mxCell id="eX8ZrraKsyN8Ze18W8im-89" value="" style="shape=partialRectangle;html=1;whiteSpace=wrap;connectable=0;strokeColor=#000000;overflow=hidden;fillColor=none;top=0;left=0;bottom=0;right=0;pointerEvents=1;swimlaneFillColor=none;fontColor=#ffffff;fillStyle=auto;labelBackgroundColor=#CC6600;" vertex="1" parent="eX8ZrraKsyN8Ze18W8im-85">
          <mxGeometry x="90" width="30" height="30" as="geometry">
            <mxRectangle width="30" height="30" as="alternateBounds" />
          </mxGeometry>
        </mxCell>
        <mxCell id="eX8ZrraKsyN8Ze18W8im-90" value="" style="shape=partialRectangle;html=1;whiteSpace=wrap;connectable=0;strokeColor=#000000;overflow=hidden;fillColor=none;top=0;left=0;bottom=0;right=0;pointerEvents=1;swimlaneFillColor=none;fontColor=#ffffff;fillStyle=auto;labelBackgroundColor=#CC6600;" vertex="1" parent="eX8ZrraKsyN8Ze18W8im-85">
          <mxGeometry x="120" width="30" height="30" as="geometry">
            <mxRectangle width="30" height="30" as="alternateBounds" />
          </mxGeometry>
        </mxCell>
        <mxCell id="eX8ZrraKsyN8Ze18W8im-91" value="" style="shape=tableRow;horizontal=0;startSize=0;swimlaneHead=0;swimlaneBody=0;strokeColor=#000000;top=0;left=0;bottom=0;right=0;collapsible=0;dropTarget=0;fillColor=none;points=[[0,0.5],[1,0.5]];portConstraint=eastwest;swimlaneFillColor=none;fontColor=#ffffff;fillStyle=auto;labelBackgroundColor=#CC6600;" vertex="1" parent="eX8ZrraKsyN8Ze18W8im-72">
          <mxGeometry y="90" width="150" height="30" as="geometry" />
        </mxCell>
        <mxCell id="eX8ZrraKsyN8Ze18W8im-92" value="" style="shape=partialRectangle;html=1;whiteSpace=wrap;connectable=0;strokeColor=#000000;overflow=hidden;fillColor=none;top=0;left=0;bottom=0;right=0;pointerEvents=1;swimlaneFillColor=none;fontColor=#ffffff;fillStyle=auto;labelBackgroundColor=#CC6600;" vertex="1" parent="eX8ZrraKsyN8Ze18W8im-91">
          <mxGeometry width="30" height="30" as="geometry">
            <mxRectangle width="30" height="30" as="alternateBounds" />
          </mxGeometry>
        </mxCell>
        <mxCell id="eX8ZrraKsyN8Ze18W8im-93" value="" style="shape=partialRectangle;html=1;whiteSpace=wrap;connectable=0;strokeColor=#000000;overflow=hidden;fillColor=none;top=0;left=0;bottom=0;right=0;pointerEvents=1;swimlaneFillColor=none;fontColor=#ffffff;fillStyle=auto;labelBackgroundColor=#CC6600;" vertex="1" parent="eX8ZrraKsyN8Ze18W8im-91">
          <mxGeometry x="30" width="30" height="30" as="geometry">
            <mxRectangle width="30" height="30" as="alternateBounds" />
          </mxGeometry>
        </mxCell>
        <mxCell id="eX8ZrraKsyN8Ze18W8im-94" value="" style="shape=partialRectangle;html=1;whiteSpace=wrap;connectable=0;strokeColor=#000000;overflow=hidden;fillColor=none;top=0;left=0;bottom=0;right=0;pointerEvents=1;swimlaneFillColor=none;fontColor=#ffffff;fillStyle=auto;labelBackgroundColor=#CC6600;" vertex="1" parent="eX8ZrraKsyN8Ze18W8im-91">
          <mxGeometry x="60" width="30" height="30" as="geometry">
            <mxRectangle width="30" height="30" as="alternateBounds" />
          </mxGeometry>
        </mxCell>
        <mxCell id="eX8ZrraKsyN8Ze18W8im-95" value="" style="shape=partialRectangle;html=1;whiteSpace=wrap;connectable=0;strokeColor=#000000;overflow=hidden;fillColor=none;top=0;left=0;bottom=0;right=0;pointerEvents=1;swimlaneFillColor=none;fontColor=#ffffff;fillStyle=auto;labelBackgroundColor=#CC6600;" vertex="1" parent="eX8ZrraKsyN8Ze18W8im-91">
          <mxGeometry x="90" width="30" height="30" as="geometry">
            <mxRectangle width="30" height="30" as="alternateBounds" />
          </mxGeometry>
        </mxCell>
        <mxCell id="eX8ZrraKsyN8Ze18W8im-96" value="" style="shape=partialRectangle;html=1;whiteSpace=wrap;connectable=0;strokeColor=#000000;overflow=hidden;fillColor=none;top=0;left=0;bottom=0;right=0;pointerEvents=1;swimlaneFillColor=none;fontColor=#ffffff;fillStyle=auto;labelBackgroundColor=#CC6600;" vertex="1" parent="eX8ZrraKsyN8Ze18W8im-91">
          <mxGeometry x="120" width="30" height="30" as="geometry">
            <mxRectangle width="30" height="30" as="alternateBounds" />
          </mxGeometry>
        </mxCell>
        <mxCell id="eX8ZrraKsyN8Ze18W8im-97" value="" style="shape=table;startSize=0;container=1;collapsible=0;childLayout=tableLayout;fillColor=#D66E3C;fontColor=#ffffff;strokeColor=#6D1F00;" vertex="1" parent="1">
          <mxGeometry x="-470" y="170" width="150" height="120" as="geometry" />
        </mxCell>
        <mxCell id="eX8ZrraKsyN8Ze18W8im-98" value="" style="shape=tableRow;horizontal=0;startSize=0;swimlaneHead=0;swimlaneBody=0;strokeColor=inherit;top=0;left=0;bottom=0;right=0;collapsible=0;dropTarget=0;fillColor=none;points=[[0,0.5],[1,0.5]];portConstraint=eastwest;" vertex="1" parent="eX8ZrraKsyN8Ze18W8im-97">
          <mxGeometry width="150" height="30" as="geometry" />
        </mxCell>
        <mxCell id="eX8ZrraKsyN8Ze18W8im-99" value="" style="shape=partialRectangle;html=1;whiteSpace=wrap;connectable=0;strokeColor=inherit;overflow=hidden;fillColor=none;top=0;left=0;bottom=0;right=0;pointerEvents=1;" vertex="1" parent="eX8ZrraKsyN8Ze18W8im-98">
          <mxGeometry width="30" height="30" as="geometry">
            <mxRectangle width="30" height="30" as="alternateBounds" />
          </mxGeometry>
        </mxCell>
        <mxCell id="eX8ZrraKsyN8Ze18W8im-100" value="" style="shape=partialRectangle;html=1;whiteSpace=wrap;connectable=0;strokeColor=inherit;overflow=hidden;fillColor=none;top=0;left=0;bottom=0;right=0;pointerEvents=1;" vertex="1" parent="eX8ZrraKsyN8Ze18W8im-98">
          <mxGeometry x="30" width="30" height="30" as="geometry">
            <mxRectangle width="30" height="30" as="alternateBounds" />
          </mxGeometry>
        </mxCell>
        <mxCell id="eX8ZrraKsyN8Ze18W8im-101" value="" style="shape=partialRectangle;html=1;whiteSpace=wrap;connectable=0;strokeColor=inherit;overflow=hidden;fillColor=none;top=0;left=0;bottom=0;right=0;pointerEvents=1;" vertex="1" parent="eX8ZrraKsyN8Ze18W8im-98">
          <mxGeometry x="60" width="30" height="30" as="geometry">
            <mxRectangle width="30" height="30" as="alternateBounds" />
          </mxGeometry>
        </mxCell>
        <mxCell id="eX8ZrraKsyN8Ze18W8im-102" value="" style="shape=partialRectangle;html=1;whiteSpace=wrap;connectable=0;strokeColor=inherit;overflow=hidden;fillColor=none;top=0;left=0;bottom=0;right=0;pointerEvents=1;" vertex="1" parent="eX8ZrraKsyN8Ze18W8im-98">
          <mxGeometry x="90" width="30" height="30" as="geometry">
            <mxRectangle width="30" height="30" as="alternateBounds" />
          </mxGeometry>
        </mxCell>
        <mxCell id="eX8ZrraKsyN8Ze18W8im-103" value="" style="shape=partialRectangle;html=1;whiteSpace=wrap;connectable=0;strokeColor=inherit;overflow=hidden;fillColor=none;top=0;left=0;bottom=0;right=0;pointerEvents=1;" vertex="1" parent="eX8ZrraKsyN8Ze18W8im-98">
          <mxGeometry x="120" width="30" height="30" as="geometry">
            <mxRectangle width="30" height="30" as="alternateBounds" />
          </mxGeometry>
        </mxCell>
        <mxCell id="eX8ZrraKsyN8Ze18W8im-104" value="" style="shape=tableRow;horizontal=0;startSize=0;swimlaneHead=0;swimlaneBody=0;strokeColor=inherit;top=0;left=0;bottom=0;right=0;collapsible=0;dropTarget=0;fillColor=none;points=[[0,0.5],[1,0.5]];portConstraint=eastwest;" vertex="1" parent="eX8ZrraKsyN8Ze18W8im-97">
          <mxGeometry y="30" width="150" height="30" as="geometry" />
        </mxCell>
        <mxCell id="eX8ZrraKsyN8Ze18W8im-105" value="" style="shape=partialRectangle;html=1;whiteSpace=wrap;connectable=0;strokeColor=inherit;overflow=hidden;fillColor=none;top=0;left=0;bottom=0;right=0;pointerEvents=1;" vertex="1" parent="eX8ZrraKsyN8Ze18W8im-104">
          <mxGeometry width="30" height="30" as="geometry">
            <mxRectangle width="30" height="30" as="alternateBounds" />
          </mxGeometry>
        </mxCell>
        <mxCell id="eX8ZrraKsyN8Ze18W8im-106" value="" style="shape=partialRectangle;html=1;whiteSpace=wrap;connectable=0;strokeColor=inherit;overflow=hidden;fillColor=none;top=0;left=0;bottom=0;right=0;pointerEvents=1;" vertex="1" parent="eX8ZrraKsyN8Ze18W8im-104">
          <mxGeometry x="30" width="30" height="30" as="geometry">
            <mxRectangle width="30" height="30" as="alternateBounds" />
          </mxGeometry>
        </mxCell>
        <mxCell id="eX8ZrraKsyN8Ze18W8im-107" value="" style="shape=partialRectangle;html=1;whiteSpace=wrap;connectable=0;strokeColor=inherit;overflow=hidden;fillColor=none;top=0;left=0;bottom=0;right=0;pointerEvents=1;" vertex="1" parent="eX8ZrraKsyN8Ze18W8im-104">
          <mxGeometry x="60" width="30" height="30" as="geometry">
            <mxRectangle width="30" height="30" as="alternateBounds" />
          </mxGeometry>
        </mxCell>
        <mxCell id="eX8ZrraKsyN8Ze18W8im-108" value="" style="shape=partialRectangle;html=1;whiteSpace=wrap;connectable=0;strokeColor=inherit;overflow=hidden;fillColor=none;top=0;left=0;bottom=0;right=0;pointerEvents=1;" vertex="1" parent="eX8ZrraKsyN8Ze18W8im-104">
          <mxGeometry x="90" width="30" height="30" as="geometry">
            <mxRectangle width="30" height="30" as="alternateBounds" />
          </mxGeometry>
        </mxCell>
        <mxCell id="eX8ZrraKsyN8Ze18W8im-109" value="" style="shape=partialRectangle;html=1;whiteSpace=wrap;connectable=0;strokeColor=inherit;overflow=hidden;fillColor=none;top=0;left=0;bottom=0;right=0;pointerEvents=1;" vertex="1" parent="eX8ZrraKsyN8Ze18W8im-104">
          <mxGeometry x="120" width="30" height="30" as="geometry">
            <mxRectangle width="30" height="30" as="alternateBounds" />
          </mxGeometry>
        </mxCell>
        <mxCell id="eX8ZrraKsyN8Ze18W8im-110" value="" style="shape=tableRow;horizontal=0;startSize=0;swimlaneHead=0;swimlaneBody=0;strokeColor=inherit;top=0;left=0;bottom=0;right=0;collapsible=0;dropTarget=0;fillColor=none;points=[[0,0.5],[1,0.5]];portConstraint=eastwest;" vertex="1" parent="eX8ZrraKsyN8Ze18W8im-97">
          <mxGeometry y="60" width="150" height="30" as="geometry" />
        </mxCell>
        <mxCell id="eX8ZrraKsyN8Ze18W8im-111" value="" style="shape=partialRectangle;html=1;whiteSpace=wrap;connectable=0;strokeColor=inherit;overflow=hidden;fillColor=none;top=0;left=0;bottom=0;right=0;pointerEvents=1;" vertex="1" parent="eX8ZrraKsyN8Ze18W8im-110">
          <mxGeometry width="30" height="30" as="geometry">
            <mxRectangle width="30" height="30" as="alternateBounds" />
          </mxGeometry>
        </mxCell>
        <mxCell id="eX8ZrraKsyN8Ze18W8im-112" value="" style="shape=partialRectangle;html=1;whiteSpace=wrap;connectable=0;strokeColor=inherit;overflow=hidden;fillColor=none;top=0;left=0;bottom=0;right=0;pointerEvents=1;" vertex="1" parent="eX8ZrraKsyN8Ze18W8im-110">
          <mxGeometry x="30" width="30" height="30" as="geometry">
            <mxRectangle width="30" height="30" as="alternateBounds" />
          </mxGeometry>
        </mxCell>
        <mxCell id="eX8ZrraKsyN8Ze18W8im-113" value="" style="shape=partialRectangle;html=1;whiteSpace=wrap;connectable=0;strokeColor=inherit;overflow=hidden;fillColor=none;top=0;left=0;bottom=0;right=0;pointerEvents=1;" vertex="1" parent="eX8ZrraKsyN8Ze18W8im-110">
          <mxGeometry x="60" width="30" height="30" as="geometry">
            <mxRectangle width="30" height="30" as="alternateBounds" />
          </mxGeometry>
        </mxCell>
        <mxCell id="eX8ZrraKsyN8Ze18W8im-114" value="" style="shape=partialRectangle;html=1;whiteSpace=wrap;connectable=0;strokeColor=inherit;overflow=hidden;fillColor=none;top=0;left=0;bottom=0;right=0;pointerEvents=1;" vertex="1" parent="eX8ZrraKsyN8Ze18W8im-110">
          <mxGeometry x="90" width="30" height="30" as="geometry">
            <mxRectangle width="30" height="30" as="alternateBounds" />
          </mxGeometry>
        </mxCell>
        <mxCell id="eX8ZrraKsyN8Ze18W8im-115" value="" style="shape=partialRectangle;html=1;whiteSpace=wrap;connectable=0;strokeColor=inherit;overflow=hidden;fillColor=none;top=0;left=0;bottom=0;right=0;pointerEvents=1;" vertex="1" parent="eX8ZrraKsyN8Ze18W8im-110">
          <mxGeometry x="120" width="30" height="30" as="geometry">
            <mxRectangle width="30" height="30" as="alternateBounds" />
          </mxGeometry>
        </mxCell>
        <mxCell id="eX8ZrraKsyN8Ze18W8im-116" value="" style="shape=tableRow;horizontal=0;startSize=0;swimlaneHead=0;swimlaneBody=0;strokeColor=inherit;top=0;left=0;bottom=0;right=0;collapsible=0;dropTarget=0;fillColor=none;points=[[0,0.5],[1,0.5]];portConstraint=eastwest;" vertex="1" parent="eX8ZrraKsyN8Ze18W8im-97">
          <mxGeometry y="90" width="150" height="30" as="geometry" />
        </mxCell>
        <mxCell id="eX8ZrraKsyN8Ze18W8im-117" value="" style="shape=partialRectangle;html=1;whiteSpace=wrap;connectable=0;strokeColor=inherit;overflow=hidden;fillColor=none;top=0;left=0;bottom=0;right=0;pointerEvents=1;" vertex="1" parent="eX8ZrraKsyN8Ze18W8im-116">
          <mxGeometry width="30" height="30" as="geometry">
            <mxRectangle width="30" height="30" as="alternateBounds" />
          </mxGeometry>
        </mxCell>
        <mxCell id="eX8ZrraKsyN8Ze18W8im-118" value="" style="shape=partialRectangle;html=1;whiteSpace=wrap;connectable=0;strokeColor=inherit;overflow=hidden;fillColor=none;top=0;left=0;bottom=0;right=0;pointerEvents=1;" vertex="1" parent="eX8ZrraKsyN8Ze18W8im-116">
          <mxGeometry x="30" width="30" height="30" as="geometry">
            <mxRectangle width="30" height="30" as="alternateBounds" />
          </mxGeometry>
        </mxCell>
        <mxCell id="eX8ZrraKsyN8Ze18W8im-119" value="" style="shape=partialRectangle;html=1;whiteSpace=wrap;connectable=0;strokeColor=inherit;overflow=hidden;fillColor=none;top=0;left=0;bottom=0;right=0;pointerEvents=1;" vertex="1" parent="eX8ZrraKsyN8Ze18W8im-116">
          <mxGeometry x="60" width="30" height="30" as="geometry">
            <mxRectangle width="30" height="30" as="alternateBounds" />
          </mxGeometry>
        </mxCell>
        <mxCell id="eX8ZrraKsyN8Ze18W8im-120" value="" style="shape=partialRectangle;html=1;whiteSpace=wrap;connectable=0;strokeColor=inherit;overflow=hidden;fillColor=none;top=0;left=0;bottom=0;right=0;pointerEvents=1;" vertex="1" parent="eX8ZrraKsyN8Ze18W8im-116">
          <mxGeometry x="90" width="30" height="30" as="geometry">
            <mxRectangle width="30" height="30" as="alternateBounds" />
          </mxGeometry>
        </mxCell>
        <mxCell id="eX8ZrraKsyN8Ze18W8im-121" value="" style="shape=partialRectangle;html=1;whiteSpace=wrap;connectable=0;strokeColor=inherit;overflow=hidden;fillColor=none;top=0;left=0;bottom=0;right=0;pointerEvents=1;" vertex="1" parent="eX8ZrraKsyN8Ze18W8im-116">
          <mxGeometry x="120" width="30" height="30" as="geometry">
            <mxRectangle width="30" height="30" as="alternateBounds" />
          </mxGeometry>
        </mxCell>
        <mxCell id="eX8ZrraKsyN8Ze18W8im-147" value="" style="shape=table;startSize=0;container=1;collapsible=0;childLayout=tableLayout;fillColor=#057621;" vertex="1" parent="1">
          <mxGeometry x="-470" y="330" width="150" height="90" as="geometry" />
        </mxCell>
        <mxCell id="eX8ZrraKsyN8Ze18W8im-148" value="" style="shape=tableRow;horizontal=0;startSize=0;swimlaneHead=0;swimlaneBody=0;strokeColor=inherit;top=0;left=0;bottom=0;right=0;collapsible=0;dropTarget=0;fillColor=none;points=[[0,0.5],[1,0.5]];portConstraint=eastwest;" vertex="1" parent="eX8ZrraKsyN8Ze18W8im-147">
          <mxGeometry width="150" height="31" as="geometry" />
        </mxCell>
        <mxCell id="eX8ZrraKsyN8Ze18W8im-149" value="" style="shape=partialRectangle;html=1;whiteSpace=wrap;connectable=0;strokeColor=inherit;overflow=hidden;fillColor=none;top=0;left=0;bottom=0;right=0;pointerEvents=1;" vertex="1" parent="eX8ZrraKsyN8Ze18W8im-148">
          <mxGeometry width="30" height="31" as="geometry">
            <mxRectangle width="30" height="31" as="alternateBounds" />
          </mxGeometry>
        </mxCell>
        <mxCell id="eX8ZrraKsyN8Ze18W8im-150" value="" style="shape=partialRectangle;html=1;whiteSpace=wrap;connectable=0;strokeColor=inherit;overflow=hidden;fillColor=none;top=0;left=0;bottom=0;right=0;pointerEvents=1;" vertex="1" parent="eX8ZrraKsyN8Ze18W8im-148">
          <mxGeometry x="30" width="30" height="31" as="geometry">
            <mxRectangle width="30" height="31" as="alternateBounds" />
          </mxGeometry>
        </mxCell>
        <mxCell id="eX8ZrraKsyN8Ze18W8im-151" value="" style="shape=partialRectangle;html=1;whiteSpace=wrap;connectable=0;strokeColor=inherit;overflow=hidden;fillColor=none;top=0;left=0;bottom=0;right=0;pointerEvents=1;" vertex="1" parent="eX8ZrraKsyN8Ze18W8im-148">
          <mxGeometry x="60" width="30" height="31" as="geometry">
            <mxRectangle width="30" height="31" as="alternateBounds" />
          </mxGeometry>
        </mxCell>
        <mxCell id="eX8ZrraKsyN8Ze18W8im-152" value="" style="shape=partialRectangle;html=1;whiteSpace=wrap;connectable=0;strokeColor=inherit;overflow=hidden;fillColor=none;top=0;left=0;bottom=0;right=0;pointerEvents=1;" vertex="1" parent="eX8ZrraKsyN8Ze18W8im-148">
          <mxGeometry x="90" width="30" height="31" as="geometry">
            <mxRectangle width="30" height="31" as="alternateBounds" />
          </mxGeometry>
        </mxCell>
        <mxCell id="eX8ZrraKsyN8Ze18W8im-153" value="" style="shape=partialRectangle;html=1;whiteSpace=wrap;connectable=0;strokeColor=inherit;overflow=hidden;fillColor=none;top=0;left=0;bottom=0;right=0;pointerEvents=1;" vertex="1" parent="eX8ZrraKsyN8Ze18W8im-148">
          <mxGeometry x="120" width="30" height="31" as="geometry">
            <mxRectangle width="30" height="31" as="alternateBounds" />
          </mxGeometry>
        </mxCell>
        <mxCell id="eX8ZrraKsyN8Ze18W8im-154" value="" style="shape=tableRow;horizontal=0;startSize=0;swimlaneHead=0;swimlaneBody=0;strokeColor=inherit;top=0;left=0;bottom=0;right=0;collapsible=0;dropTarget=0;fillColor=none;points=[[0,0.5],[1,0.5]];portConstraint=eastwest;" vertex="1" parent="eX8ZrraKsyN8Ze18W8im-147">
          <mxGeometry y="31" width="150" height="28" as="geometry" />
        </mxCell>
        <mxCell id="eX8ZrraKsyN8Ze18W8im-155" value="" style="shape=partialRectangle;html=1;whiteSpace=wrap;connectable=0;strokeColor=inherit;overflow=hidden;fillColor=none;top=0;left=0;bottom=0;right=0;pointerEvents=1;" vertex="1" parent="eX8ZrraKsyN8Ze18W8im-154">
          <mxGeometry width="30" height="28" as="geometry">
            <mxRectangle width="30" height="28" as="alternateBounds" />
          </mxGeometry>
        </mxCell>
        <mxCell id="eX8ZrraKsyN8Ze18W8im-156" value="" style="shape=partialRectangle;html=1;whiteSpace=wrap;connectable=0;strokeColor=inherit;overflow=hidden;fillColor=none;top=0;left=0;bottom=0;right=0;pointerEvents=1;" vertex="1" parent="eX8ZrraKsyN8Ze18W8im-154">
          <mxGeometry x="30" width="30" height="28" as="geometry">
            <mxRectangle width="30" height="28" as="alternateBounds" />
          </mxGeometry>
        </mxCell>
        <mxCell id="eX8ZrraKsyN8Ze18W8im-157" value="" style="shape=partialRectangle;html=1;whiteSpace=wrap;connectable=0;strokeColor=inherit;overflow=hidden;fillColor=none;top=0;left=0;bottom=0;right=0;pointerEvents=1;" vertex="1" parent="eX8ZrraKsyN8Ze18W8im-154">
          <mxGeometry x="60" width="30" height="28" as="geometry">
            <mxRectangle width="30" height="28" as="alternateBounds" />
          </mxGeometry>
        </mxCell>
        <mxCell id="eX8ZrraKsyN8Ze18W8im-158" value="" style="shape=partialRectangle;html=1;whiteSpace=wrap;connectable=0;strokeColor=inherit;overflow=hidden;fillColor=none;top=0;left=0;bottom=0;right=0;pointerEvents=1;" vertex="1" parent="eX8ZrraKsyN8Ze18W8im-154">
          <mxGeometry x="90" width="30" height="28" as="geometry">
            <mxRectangle width="30" height="28" as="alternateBounds" />
          </mxGeometry>
        </mxCell>
        <mxCell id="eX8ZrraKsyN8Ze18W8im-159" value="" style="shape=partialRectangle;html=1;whiteSpace=wrap;connectable=0;strokeColor=inherit;overflow=hidden;fillColor=none;top=0;left=0;bottom=0;right=0;pointerEvents=1;" vertex="1" parent="eX8ZrraKsyN8Ze18W8im-154">
          <mxGeometry x="120" width="30" height="28" as="geometry">
            <mxRectangle width="30" height="28" as="alternateBounds" />
          </mxGeometry>
        </mxCell>
        <mxCell id="eX8ZrraKsyN8Ze18W8im-160" value="" style="shape=tableRow;horizontal=0;startSize=0;swimlaneHead=0;swimlaneBody=0;strokeColor=inherit;top=0;left=0;bottom=0;right=0;collapsible=0;dropTarget=0;fillColor=none;points=[[0,0.5],[1,0.5]];portConstraint=eastwest;" vertex="1" parent="eX8ZrraKsyN8Ze18W8im-147">
          <mxGeometry y="59" width="150" height="31" as="geometry" />
        </mxCell>
        <mxCell id="eX8ZrraKsyN8Ze18W8im-161" value="" style="shape=partialRectangle;html=1;whiteSpace=wrap;connectable=0;strokeColor=inherit;overflow=hidden;fillColor=none;top=0;left=0;bottom=0;right=0;pointerEvents=1;" vertex="1" parent="eX8ZrraKsyN8Ze18W8im-160">
          <mxGeometry width="30" height="31" as="geometry">
            <mxRectangle width="30" height="31" as="alternateBounds" />
          </mxGeometry>
        </mxCell>
        <mxCell id="eX8ZrraKsyN8Ze18W8im-162" value="" style="shape=partialRectangle;html=1;whiteSpace=wrap;connectable=0;strokeColor=inherit;overflow=hidden;fillColor=none;top=0;left=0;bottom=0;right=0;pointerEvents=1;" vertex="1" parent="eX8ZrraKsyN8Ze18W8im-160">
          <mxGeometry x="30" width="30" height="31" as="geometry">
            <mxRectangle width="30" height="31" as="alternateBounds" />
          </mxGeometry>
        </mxCell>
        <mxCell id="eX8ZrraKsyN8Ze18W8im-163" value="" style="shape=partialRectangle;html=1;whiteSpace=wrap;connectable=0;strokeColor=inherit;overflow=hidden;fillColor=none;top=0;left=0;bottom=0;right=0;pointerEvents=1;" vertex="1" parent="eX8ZrraKsyN8Ze18W8im-160">
          <mxGeometry x="60" width="30" height="31" as="geometry">
            <mxRectangle width="30" height="31" as="alternateBounds" />
          </mxGeometry>
        </mxCell>
        <mxCell id="eX8ZrraKsyN8Ze18W8im-164" value="" style="shape=partialRectangle;html=1;whiteSpace=wrap;connectable=0;strokeColor=inherit;overflow=hidden;fillColor=none;top=0;left=0;bottom=0;right=0;pointerEvents=1;" vertex="1" parent="eX8ZrraKsyN8Ze18W8im-160">
          <mxGeometry x="90" width="30" height="31" as="geometry">
            <mxRectangle width="30" height="31" as="alternateBounds" />
          </mxGeometry>
        </mxCell>
        <mxCell id="eX8ZrraKsyN8Ze18W8im-165" value="" style="shape=partialRectangle;html=1;whiteSpace=wrap;connectable=0;strokeColor=inherit;overflow=hidden;fillColor=none;top=0;left=0;bottom=0;right=0;pointerEvents=1;" vertex="1" parent="eX8ZrraKsyN8Ze18W8im-160">
          <mxGeometry x="120" width="30" height="31" as="geometry">
            <mxRectangle width="30" height="31" as="alternateBounds" />
          </mxGeometry>
        </mxCell>
        <mxCell id="eX8ZrraKsyN8Ze18W8im-166" value="" style="shape=table;startSize=0;container=1;collapsible=0;childLayout=tableLayout;fillColor=#46d87e;" vertex="1" parent="1">
          <mxGeometry x="-470" y="439" width="150" height="90" as="geometry" />
        </mxCell>
        <mxCell id="eX8ZrraKsyN8Ze18W8im-167" value="" style="shape=tableRow;horizontal=0;startSize=0;swimlaneHead=0;swimlaneBody=0;strokeColor=inherit;top=0;left=0;bottom=0;right=0;collapsible=0;dropTarget=0;fillColor=none;points=[[0,0.5],[1,0.5]];portConstraint=eastwest;" vertex="1" parent="eX8ZrraKsyN8Ze18W8im-166">
          <mxGeometry width="150" height="31" as="geometry" />
        </mxCell>
        <mxCell id="eX8ZrraKsyN8Ze18W8im-168" value="" style="shape=partialRectangle;html=1;whiteSpace=wrap;connectable=0;strokeColor=inherit;overflow=hidden;fillColor=none;top=0;left=0;bottom=0;right=0;pointerEvents=1;" vertex="1" parent="eX8ZrraKsyN8Ze18W8im-167">
          <mxGeometry width="30" height="31" as="geometry">
            <mxRectangle width="30" height="31" as="alternateBounds" />
          </mxGeometry>
        </mxCell>
        <mxCell id="eX8ZrraKsyN8Ze18W8im-169" value="" style="shape=partialRectangle;html=1;whiteSpace=wrap;connectable=0;strokeColor=inherit;overflow=hidden;fillColor=none;top=0;left=0;bottom=0;right=0;pointerEvents=1;" vertex="1" parent="eX8ZrraKsyN8Ze18W8im-167">
          <mxGeometry x="30" width="30" height="31" as="geometry">
            <mxRectangle width="30" height="31" as="alternateBounds" />
          </mxGeometry>
        </mxCell>
        <mxCell id="eX8ZrraKsyN8Ze18W8im-170" value="" style="shape=partialRectangle;html=1;whiteSpace=wrap;connectable=0;strokeColor=inherit;overflow=hidden;fillColor=none;top=0;left=0;bottom=0;right=0;pointerEvents=1;" vertex="1" parent="eX8ZrraKsyN8Ze18W8im-167">
          <mxGeometry x="60" width="30" height="31" as="geometry">
            <mxRectangle width="30" height="31" as="alternateBounds" />
          </mxGeometry>
        </mxCell>
        <mxCell id="eX8ZrraKsyN8Ze18W8im-171" value="" style="shape=partialRectangle;html=1;whiteSpace=wrap;connectable=0;strokeColor=inherit;overflow=hidden;fillColor=none;top=0;left=0;bottom=0;right=0;pointerEvents=1;" vertex="1" parent="eX8ZrraKsyN8Ze18W8im-167">
          <mxGeometry x="90" width="30" height="31" as="geometry">
            <mxRectangle width="30" height="31" as="alternateBounds" />
          </mxGeometry>
        </mxCell>
        <mxCell id="eX8ZrraKsyN8Ze18W8im-172" value="" style="shape=partialRectangle;html=1;whiteSpace=wrap;connectable=0;strokeColor=inherit;overflow=hidden;fillColor=none;top=0;left=0;bottom=0;right=0;pointerEvents=1;" vertex="1" parent="eX8ZrraKsyN8Ze18W8im-167">
          <mxGeometry x="120" width="30" height="31" as="geometry">
            <mxRectangle width="30" height="31" as="alternateBounds" />
          </mxGeometry>
        </mxCell>
        <mxCell id="eX8ZrraKsyN8Ze18W8im-173" value="" style="shape=tableRow;horizontal=0;startSize=0;swimlaneHead=0;swimlaneBody=0;strokeColor=inherit;top=0;left=0;bottom=0;right=0;collapsible=0;dropTarget=0;fillColor=none;points=[[0,0.5],[1,0.5]];portConstraint=eastwest;" vertex="1" parent="eX8ZrraKsyN8Ze18W8im-166">
          <mxGeometry y="31" width="150" height="28" as="geometry" />
        </mxCell>
        <mxCell id="eX8ZrraKsyN8Ze18W8im-174" value="" style="shape=partialRectangle;html=1;whiteSpace=wrap;connectable=0;strokeColor=inherit;overflow=hidden;fillColor=none;top=0;left=0;bottom=0;right=0;pointerEvents=1;" vertex="1" parent="eX8ZrraKsyN8Ze18W8im-173">
          <mxGeometry width="30" height="28" as="geometry">
            <mxRectangle width="30" height="28" as="alternateBounds" />
          </mxGeometry>
        </mxCell>
        <mxCell id="eX8ZrraKsyN8Ze18W8im-175" value="" style="shape=partialRectangle;html=1;whiteSpace=wrap;connectable=0;strokeColor=inherit;overflow=hidden;fillColor=none;top=0;left=0;bottom=0;right=0;pointerEvents=1;" vertex="1" parent="eX8ZrraKsyN8Ze18W8im-173">
          <mxGeometry x="30" width="30" height="28" as="geometry">
            <mxRectangle width="30" height="28" as="alternateBounds" />
          </mxGeometry>
        </mxCell>
        <mxCell id="eX8ZrraKsyN8Ze18W8im-176" value="" style="shape=partialRectangle;html=1;whiteSpace=wrap;connectable=0;strokeColor=inherit;overflow=hidden;fillColor=none;top=0;left=0;bottom=0;right=0;pointerEvents=1;" vertex="1" parent="eX8ZrraKsyN8Ze18W8im-173">
          <mxGeometry x="60" width="30" height="28" as="geometry">
            <mxRectangle width="30" height="28" as="alternateBounds" />
          </mxGeometry>
        </mxCell>
        <mxCell id="eX8ZrraKsyN8Ze18W8im-177" value="" style="shape=partialRectangle;html=1;whiteSpace=wrap;connectable=0;strokeColor=inherit;overflow=hidden;fillColor=none;top=0;left=0;bottom=0;right=0;pointerEvents=1;" vertex="1" parent="eX8ZrraKsyN8Ze18W8im-173">
          <mxGeometry x="90" width="30" height="28" as="geometry">
            <mxRectangle width="30" height="28" as="alternateBounds" />
          </mxGeometry>
        </mxCell>
        <mxCell id="eX8ZrraKsyN8Ze18W8im-178" value="" style="shape=partialRectangle;html=1;whiteSpace=wrap;connectable=0;strokeColor=inherit;overflow=hidden;fillColor=none;top=0;left=0;bottom=0;right=0;pointerEvents=1;" vertex="1" parent="eX8ZrraKsyN8Ze18W8im-173">
          <mxGeometry x="120" width="30" height="28" as="geometry">
            <mxRectangle width="30" height="28" as="alternateBounds" />
          </mxGeometry>
        </mxCell>
        <mxCell id="eX8ZrraKsyN8Ze18W8im-179" value="" style="shape=tableRow;horizontal=0;startSize=0;swimlaneHead=0;swimlaneBody=0;strokeColor=inherit;top=0;left=0;bottom=0;right=0;collapsible=0;dropTarget=0;fillColor=none;points=[[0,0.5],[1,0.5]];portConstraint=eastwest;" vertex="1" parent="eX8ZrraKsyN8Ze18W8im-166">
          <mxGeometry y="59" width="150" height="31" as="geometry" />
        </mxCell>
        <mxCell id="eX8ZrraKsyN8Ze18W8im-180" value="" style="shape=partialRectangle;html=1;whiteSpace=wrap;connectable=0;strokeColor=inherit;overflow=hidden;fillColor=none;top=0;left=0;bottom=0;right=0;pointerEvents=1;" vertex="1" parent="eX8ZrraKsyN8Ze18W8im-179">
          <mxGeometry width="30" height="31" as="geometry">
            <mxRectangle width="30" height="31" as="alternateBounds" />
          </mxGeometry>
        </mxCell>
        <mxCell id="eX8ZrraKsyN8Ze18W8im-181" value="" style="shape=partialRectangle;html=1;whiteSpace=wrap;connectable=0;strokeColor=inherit;overflow=hidden;fillColor=none;top=0;left=0;bottom=0;right=0;pointerEvents=1;" vertex="1" parent="eX8ZrraKsyN8Ze18W8im-179">
          <mxGeometry x="30" width="30" height="31" as="geometry">
            <mxRectangle width="30" height="31" as="alternateBounds" />
          </mxGeometry>
        </mxCell>
        <mxCell id="eX8ZrraKsyN8Ze18W8im-182" value="" style="shape=partialRectangle;html=1;whiteSpace=wrap;connectable=0;strokeColor=inherit;overflow=hidden;fillColor=none;top=0;left=0;bottom=0;right=0;pointerEvents=1;" vertex="1" parent="eX8ZrraKsyN8Ze18W8im-179">
          <mxGeometry x="60" width="30" height="31" as="geometry">
            <mxRectangle width="30" height="31" as="alternateBounds" />
          </mxGeometry>
        </mxCell>
        <mxCell id="eX8ZrraKsyN8Ze18W8im-183" value="" style="shape=partialRectangle;html=1;whiteSpace=wrap;connectable=0;strokeColor=inherit;overflow=hidden;fillColor=none;top=0;left=0;bottom=0;right=0;pointerEvents=1;" vertex="1" parent="eX8ZrraKsyN8Ze18W8im-179">
          <mxGeometry x="90" width="30" height="31" as="geometry">
            <mxRectangle width="30" height="31" as="alternateBounds" />
          </mxGeometry>
        </mxCell>
        <mxCell id="eX8ZrraKsyN8Ze18W8im-184" value="" style="shape=partialRectangle;html=1;whiteSpace=wrap;connectable=0;strokeColor=inherit;overflow=hidden;fillColor=none;top=0;left=0;bottom=0;right=0;pointerEvents=1;" vertex="1" parent="eX8ZrraKsyN8Ze18W8im-179">
          <mxGeometry x="120" width="30" height="31" as="geometry">
            <mxRectangle width="30" height="31" as="alternateBounds" />
          </mxGeometry>
        </mxCell>
        <mxCell id="eX8ZrraKsyN8Ze18W8im-185" value="" style="shape=table;startSize=0;container=1;collapsible=0;childLayout=tableLayout;fillColor=#99950f;" vertex="1" parent="1">
          <mxGeometry x="-470" y="562" width="150" height="50" as="geometry" />
        </mxCell>
        <mxCell id="eX8ZrraKsyN8Ze18W8im-186" value="" style="shape=tableRow;horizontal=0;startSize=0;swimlaneHead=0;swimlaneBody=0;strokeColor=inherit;top=0;left=0;bottom=0;right=0;collapsible=0;dropTarget=0;fillColor=none;points=[[0,0.5],[1,0.5]];portConstraint=eastwest;" vertex="1" parent="eX8ZrraKsyN8Ze18W8im-185">
          <mxGeometry width="150" height="25" as="geometry" />
        </mxCell>
        <mxCell id="eX8ZrraKsyN8Ze18W8im-187" value="" style="shape=partialRectangle;html=1;whiteSpace=wrap;connectable=0;strokeColor=inherit;overflow=hidden;fillColor=none;top=0;left=0;bottom=0;right=0;pointerEvents=1;" vertex="1" parent="eX8ZrraKsyN8Ze18W8im-186">
          <mxGeometry width="30" height="25" as="geometry">
            <mxRectangle width="30" height="25" as="alternateBounds" />
          </mxGeometry>
        </mxCell>
        <mxCell id="eX8ZrraKsyN8Ze18W8im-188" value="" style="shape=partialRectangle;html=1;whiteSpace=wrap;connectable=0;strokeColor=inherit;overflow=hidden;fillColor=none;top=0;left=0;bottom=0;right=0;pointerEvents=1;" vertex="1" parent="eX8ZrraKsyN8Ze18W8im-186">
          <mxGeometry x="30" width="30" height="25" as="geometry">
            <mxRectangle width="30" height="25" as="alternateBounds" />
          </mxGeometry>
        </mxCell>
        <mxCell id="eX8ZrraKsyN8Ze18W8im-189" value="" style="shape=partialRectangle;html=1;whiteSpace=wrap;connectable=0;strokeColor=inherit;overflow=hidden;fillColor=none;top=0;left=0;bottom=0;right=0;pointerEvents=1;" vertex="1" parent="eX8ZrraKsyN8Ze18W8im-186">
          <mxGeometry x="60" width="30" height="25" as="geometry">
            <mxRectangle width="30" height="25" as="alternateBounds" />
          </mxGeometry>
        </mxCell>
        <mxCell id="eX8ZrraKsyN8Ze18W8im-190" value="" style="shape=partialRectangle;html=1;whiteSpace=wrap;connectable=0;strokeColor=inherit;overflow=hidden;fillColor=none;top=0;left=0;bottom=0;right=0;pointerEvents=1;" vertex="1" parent="eX8ZrraKsyN8Ze18W8im-186">
          <mxGeometry x="90" width="30" height="25" as="geometry">
            <mxRectangle width="30" height="25" as="alternateBounds" />
          </mxGeometry>
        </mxCell>
        <mxCell id="eX8ZrraKsyN8Ze18W8im-191" value="" style="shape=partialRectangle;html=1;whiteSpace=wrap;connectable=0;strokeColor=inherit;overflow=hidden;fillColor=none;top=0;left=0;bottom=0;right=0;pointerEvents=1;" vertex="1" parent="eX8ZrraKsyN8Ze18W8im-186">
          <mxGeometry x="120" width="30" height="25" as="geometry">
            <mxRectangle width="30" height="25" as="alternateBounds" />
          </mxGeometry>
        </mxCell>
        <mxCell id="eX8ZrraKsyN8Ze18W8im-192" value="" style="shape=tableRow;horizontal=0;startSize=0;swimlaneHead=0;swimlaneBody=0;strokeColor=inherit;top=0;left=0;bottom=0;right=0;collapsible=0;dropTarget=0;fillColor=none;points=[[0,0.5],[1,0.5]];portConstraint=eastwest;" vertex="1" parent="eX8ZrraKsyN8Ze18W8im-185">
          <mxGeometry y="25" width="150" height="25" as="geometry" />
        </mxCell>
        <mxCell id="eX8ZrraKsyN8Ze18W8im-193" value="" style="shape=partialRectangle;html=1;whiteSpace=wrap;connectable=0;strokeColor=inherit;overflow=hidden;fillColor=none;top=0;left=0;bottom=0;right=0;pointerEvents=1;" vertex="1" parent="eX8ZrraKsyN8Ze18W8im-192">
          <mxGeometry width="30" height="25" as="geometry">
            <mxRectangle width="30" height="25" as="alternateBounds" />
          </mxGeometry>
        </mxCell>
        <mxCell id="eX8ZrraKsyN8Ze18W8im-194" value="" style="shape=partialRectangle;html=1;whiteSpace=wrap;connectable=0;strokeColor=inherit;overflow=hidden;fillColor=none;top=0;left=0;bottom=0;right=0;pointerEvents=1;" vertex="1" parent="eX8ZrraKsyN8Ze18W8im-192">
          <mxGeometry x="30" width="30" height="25" as="geometry">
            <mxRectangle width="30" height="25" as="alternateBounds" />
          </mxGeometry>
        </mxCell>
        <mxCell id="eX8ZrraKsyN8Ze18W8im-195" value="" style="shape=partialRectangle;html=1;whiteSpace=wrap;connectable=0;strokeColor=inherit;overflow=hidden;fillColor=none;top=0;left=0;bottom=0;right=0;pointerEvents=1;" vertex="1" parent="eX8ZrraKsyN8Ze18W8im-192">
          <mxGeometry x="60" width="30" height="25" as="geometry">
            <mxRectangle width="30" height="25" as="alternateBounds" />
          </mxGeometry>
        </mxCell>
        <mxCell id="eX8ZrraKsyN8Ze18W8im-196" value="" style="shape=partialRectangle;html=1;whiteSpace=wrap;connectable=0;strokeColor=inherit;overflow=hidden;fillColor=none;top=0;left=0;bottom=0;right=0;pointerEvents=1;" vertex="1" parent="eX8ZrraKsyN8Ze18W8im-192">
          <mxGeometry x="90" width="30" height="25" as="geometry">
            <mxRectangle width="30" height="25" as="alternateBounds" />
          </mxGeometry>
        </mxCell>
        <mxCell id="eX8ZrraKsyN8Ze18W8im-197" value="" style="shape=partialRectangle;html=1;whiteSpace=wrap;connectable=0;strokeColor=inherit;overflow=hidden;fillColor=none;top=0;left=0;bottom=0;right=0;pointerEvents=1;" vertex="1" parent="eX8ZrraKsyN8Ze18W8im-192">
          <mxGeometry x="120" width="30" height="25" as="geometry">
            <mxRectangle width="30" height="25" as="alternateBounds" />
          </mxGeometry>
        </mxCell>
        <mxCell id="eX8ZrraKsyN8Ze18W8im-198" value="" style="shape=table;startSize=0;container=1;collapsible=0;childLayout=tableLayout;fillColor=#f5f170;" vertex="1" parent="1">
          <mxGeometry x="-470" y="630" width="150" height="50" as="geometry" />
        </mxCell>
        <mxCell id="eX8ZrraKsyN8Ze18W8im-199" value="" style="shape=tableRow;horizontal=0;startSize=0;swimlaneHead=0;swimlaneBody=0;strokeColor=inherit;top=0;left=0;bottom=0;right=0;collapsible=0;dropTarget=0;fillColor=none;points=[[0,0.5],[1,0.5]];portConstraint=eastwest;" vertex="1" parent="eX8ZrraKsyN8Ze18W8im-198">
          <mxGeometry width="150" height="25" as="geometry" />
        </mxCell>
        <mxCell id="eX8ZrraKsyN8Ze18W8im-200" value="" style="shape=partialRectangle;html=1;whiteSpace=wrap;connectable=0;strokeColor=inherit;overflow=hidden;fillColor=none;top=0;left=0;bottom=0;right=0;pointerEvents=1;" vertex="1" parent="eX8ZrraKsyN8Ze18W8im-199">
          <mxGeometry width="30" height="25" as="geometry">
            <mxRectangle width="30" height="25" as="alternateBounds" />
          </mxGeometry>
        </mxCell>
        <mxCell id="eX8ZrraKsyN8Ze18W8im-201" value="" style="shape=partialRectangle;html=1;whiteSpace=wrap;connectable=0;strokeColor=inherit;overflow=hidden;fillColor=none;top=0;left=0;bottom=0;right=0;pointerEvents=1;" vertex="1" parent="eX8ZrraKsyN8Ze18W8im-199">
          <mxGeometry x="30" width="30" height="25" as="geometry">
            <mxRectangle width="30" height="25" as="alternateBounds" />
          </mxGeometry>
        </mxCell>
        <mxCell id="eX8ZrraKsyN8Ze18W8im-202" value="" style="shape=partialRectangle;html=1;whiteSpace=wrap;connectable=0;strokeColor=inherit;overflow=hidden;fillColor=none;top=0;left=0;bottom=0;right=0;pointerEvents=1;" vertex="1" parent="eX8ZrraKsyN8Ze18W8im-199">
          <mxGeometry x="60" width="30" height="25" as="geometry">
            <mxRectangle width="30" height="25" as="alternateBounds" />
          </mxGeometry>
        </mxCell>
        <mxCell id="eX8ZrraKsyN8Ze18W8im-203" value="" style="shape=partialRectangle;html=1;whiteSpace=wrap;connectable=0;strokeColor=inherit;overflow=hidden;fillColor=none;top=0;left=0;bottom=0;right=0;pointerEvents=1;" vertex="1" parent="eX8ZrraKsyN8Ze18W8im-199">
          <mxGeometry x="90" width="30" height="25" as="geometry">
            <mxRectangle width="30" height="25" as="alternateBounds" />
          </mxGeometry>
        </mxCell>
        <mxCell id="eX8ZrraKsyN8Ze18W8im-204" value="" style="shape=partialRectangle;html=1;whiteSpace=wrap;connectable=0;strokeColor=inherit;overflow=hidden;fillColor=none;top=0;left=0;bottom=0;right=0;pointerEvents=1;" vertex="1" parent="eX8ZrraKsyN8Ze18W8im-199">
          <mxGeometry x="120" width="30" height="25" as="geometry">
            <mxRectangle width="30" height="25" as="alternateBounds" />
          </mxGeometry>
        </mxCell>
        <mxCell id="eX8ZrraKsyN8Ze18W8im-205" value="" style="shape=tableRow;horizontal=0;startSize=0;swimlaneHead=0;swimlaneBody=0;strokeColor=inherit;top=0;left=0;bottom=0;right=0;collapsible=0;dropTarget=0;fillColor=none;points=[[0,0.5],[1,0.5]];portConstraint=eastwest;" vertex="1" parent="eX8ZrraKsyN8Ze18W8im-198">
          <mxGeometry y="25" width="150" height="25" as="geometry" />
        </mxCell>
        <mxCell id="eX8ZrraKsyN8Ze18W8im-206" value="" style="shape=partialRectangle;html=1;whiteSpace=wrap;connectable=0;strokeColor=inherit;overflow=hidden;fillColor=none;top=0;left=0;bottom=0;right=0;pointerEvents=1;" vertex="1" parent="eX8ZrraKsyN8Ze18W8im-205">
          <mxGeometry width="30" height="25" as="geometry">
            <mxRectangle width="30" height="25" as="alternateBounds" />
          </mxGeometry>
        </mxCell>
        <mxCell id="eX8ZrraKsyN8Ze18W8im-207" value="" style="shape=partialRectangle;html=1;whiteSpace=wrap;connectable=0;strokeColor=inherit;overflow=hidden;fillColor=none;top=0;left=0;bottom=0;right=0;pointerEvents=1;" vertex="1" parent="eX8ZrraKsyN8Ze18W8im-205">
          <mxGeometry x="30" width="30" height="25" as="geometry">
            <mxRectangle width="30" height="25" as="alternateBounds" />
          </mxGeometry>
        </mxCell>
        <mxCell id="eX8ZrraKsyN8Ze18W8im-208" value="" style="shape=partialRectangle;html=1;whiteSpace=wrap;connectable=0;strokeColor=inherit;overflow=hidden;fillColor=none;top=0;left=0;bottom=0;right=0;pointerEvents=1;" vertex="1" parent="eX8ZrraKsyN8Ze18W8im-205">
          <mxGeometry x="60" width="30" height="25" as="geometry">
            <mxRectangle width="30" height="25" as="alternateBounds" />
          </mxGeometry>
        </mxCell>
        <mxCell id="eX8ZrraKsyN8Ze18W8im-209" value="" style="shape=partialRectangle;html=1;whiteSpace=wrap;connectable=0;strokeColor=inherit;overflow=hidden;fillColor=none;top=0;left=0;bottom=0;right=0;pointerEvents=1;" vertex="1" parent="eX8ZrraKsyN8Ze18W8im-205">
          <mxGeometry x="90" width="30" height="25" as="geometry">
            <mxRectangle width="30" height="25" as="alternateBounds" />
          </mxGeometry>
        </mxCell>
        <mxCell id="eX8ZrraKsyN8Ze18W8im-210" value="" style="shape=partialRectangle;html=1;whiteSpace=wrap;connectable=0;strokeColor=inherit;overflow=hidden;fillColor=none;top=0;left=0;bottom=0;right=0;pointerEvents=1;" vertex="1" parent="eX8ZrraKsyN8Ze18W8im-205">
          <mxGeometry x="120" width="30" height="25" as="geometry">
            <mxRectangle width="30" height="25" as="alternateBounds" />
          </mxGeometry>
        </mxCell>
        <mxCell id="eX8ZrraKsyN8Ze18W8im-211" value="" style="shape=table;startSize=0;container=1;collapsible=0;childLayout=tableLayout;shadow=0;labelBackgroundColor=#CC6600;sketch=0;fillStyle=auto;strokeColor=#6D1F00;strokeWidth=1;fillColor=#a0522d;gradientColor=none;fontColor=#ffffff;swimlaneFillColor=none;" vertex="1" parent="1">
          <mxGeometry x="-262" y="30" width="30" height="120" as="geometry" />
        </mxCell>
        <mxCell id="eX8ZrraKsyN8Ze18W8im-212" value="" style="shape=tableRow;horizontal=0;startSize=0;swimlaneHead=0;swimlaneBody=0;strokeColor=inherit;top=0;left=0;bottom=0;right=0;collapsible=0;dropTarget=0;fillColor=none;points=[[0,0.5],[1,0.5]];portConstraint=eastwest;shadow=0;labelBackgroundColor=#CC6600;sketch=0;fillStyle=solid;strokeWidth=3;" vertex="1" parent="eX8ZrraKsyN8Ze18W8im-211">
          <mxGeometry width="30" height="30" as="geometry" />
        </mxCell>
        <mxCell id="eX8ZrraKsyN8Ze18W8im-213" value="" style="shape=partialRectangle;html=1;whiteSpace=wrap;connectable=0;strokeColor=inherit;overflow=hidden;fillColor=none;top=0;left=0;bottom=0;right=0;pointerEvents=1;shadow=0;labelBackgroundColor=#CC6600;sketch=0;fillStyle=solid;strokeWidth=3;" vertex="1" parent="eX8ZrraKsyN8Ze18W8im-212">
          <mxGeometry width="30" height="30" as="geometry">
            <mxRectangle width="30" height="30" as="alternateBounds" />
          </mxGeometry>
        </mxCell>
        <mxCell id="eX8ZrraKsyN8Ze18W8im-214" value="" style="shape=tableRow;horizontal=0;startSize=0;swimlaneHead=0;swimlaneBody=0;strokeColor=inherit;top=0;left=0;bottom=0;right=0;collapsible=0;dropTarget=0;fillColor=none;points=[[0,0.5],[1,0.5]];portConstraint=eastwest;shadow=0;labelBackgroundColor=#CC6600;sketch=0;fillStyle=solid;strokeWidth=3;" vertex="1" parent="eX8ZrraKsyN8Ze18W8im-211">
          <mxGeometry y="30" width="30" height="30" as="geometry" />
        </mxCell>
        <mxCell id="eX8ZrraKsyN8Ze18W8im-215" value="" style="shape=partialRectangle;html=1;whiteSpace=wrap;connectable=0;strokeColor=inherit;overflow=hidden;fillColor=none;top=0;left=0;bottom=0;right=0;pointerEvents=1;shadow=0;labelBackgroundColor=#CC6600;sketch=0;fillStyle=solid;strokeWidth=3;" vertex="1" parent="eX8ZrraKsyN8Ze18W8im-214">
          <mxGeometry width="30" height="30" as="geometry">
            <mxRectangle width="30" height="30" as="alternateBounds" />
          </mxGeometry>
        </mxCell>
        <mxCell id="eX8ZrraKsyN8Ze18W8im-216" value="" style="shape=tableRow;horizontal=0;startSize=0;swimlaneHead=0;swimlaneBody=0;strokeColor=inherit;top=0;left=0;bottom=0;right=0;collapsible=0;dropTarget=0;fillColor=none;points=[[0,0.5],[1,0.5]];portConstraint=eastwest;shadow=0;labelBackgroundColor=#CC6600;sketch=0;fillStyle=solid;strokeWidth=3;" vertex="1" parent="eX8ZrraKsyN8Ze18W8im-211">
          <mxGeometry y="60" width="30" height="30" as="geometry" />
        </mxCell>
        <mxCell id="eX8ZrraKsyN8Ze18W8im-217" value="" style="shape=partialRectangle;html=1;whiteSpace=wrap;connectable=0;strokeColor=inherit;overflow=hidden;fillColor=none;top=0;left=0;bottom=0;right=0;pointerEvents=1;shadow=0;labelBackgroundColor=#CC6600;sketch=0;fillStyle=solid;strokeWidth=3;" vertex="1" parent="eX8ZrraKsyN8Ze18W8im-216">
          <mxGeometry width="30" height="30" as="geometry">
            <mxRectangle width="30" height="30" as="alternateBounds" />
          </mxGeometry>
        </mxCell>
        <mxCell id="eX8ZrraKsyN8Ze18W8im-218" value="" style="shape=tableRow;horizontal=0;startSize=0;swimlaneHead=0;swimlaneBody=0;strokeColor=inherit;top=0;left=0;bottom=0;right=0;collapsible=0;dropTarget=0;fillColor=none;points=[[0,0.5],[1,0.5]];portConstraint=eastwest;shadow=0;labelBackgroundColor=#CC6600;sketch=0;fillStyle=solid;strokeWidth=3;" vertex="1" parent="eX8ZrraKsyN8Ze18W8im-211">
          <mxGeometry y="90" width="30" height="30" as="geometry" />
        </mxCell>
        <mxCell id="eX8ZrraKsyN8Ze18W8im-219" value="" style="shape=partialRectangle;html=1;whiteSpace=wrap;connectable=0;strokeColor=inherit;overflow=hidden;fillColor=none;top=0;left=0;bottom=0;right=0;pointerEvents=1;shadow=0;labelBackgroundColor=#CC6600;sketch=0;fillStyle=solid;strokeWidth=3;" vertex="1" parent="eX8ZrraKsyN8Ze18W8im-218">
          <mxGeometry width="30" height="30" as="geometry">
            <mxRectangle width="30" height="30" as="alternateBounds" />
          </mxGeometry>
        </mxCell>
        <mxCell id="eX8ZrraKsyN8Ze18W8im-220" value="" style="endArrow=classic;html=1;rounded=0;" edge="1" parent="1">
          <mxGeometry width="50" height="50" relative="1" as="geometry">
            <mxPoint x="-314" y="90" as="sourcePoint" />
            <mxPoint x="-264" y="90" as="targetPoint" />
          </mxGeometry>
        </mxCell>
        <mxCell id="eX8ZrraKsyN8Ze18W8im-221" value="" style="shape=table;startSize=0;container=1;collapsible=0;childLayout=tableLayout;shadow=0;labelBackgroundColor=#CC6600;sketch=0;fillStyle=auto;strokeColor=#6D1F00;strokeWidth=1;fillColor=#D66E3C;gradientColor=none;fontColor=#ffffff;swimlaneFillColor=none;" vertex="1" parent="1">
          <mxGeometry x="-263" y="174" width="30" height="120" as="geometry" />
        </mxCell>
        <mxCell id="eX8ZrraKsyN8Ze18W8im-222" value="" style="shape=tableRow;horizontal=0;startSize=0;swimlaneHead=0;swimlaneBody=0;strokeColor=inherit;top=0;left=0;bottom=0;right=0;collapsible=0;dropTarget=0;fillColor=none;points=[[0,0.5],[1,0.5]];portConstraint=eastwest;shadow=0;labelBackgroundColor=#CC6600;sketch=0;fillStyle=solid;strokeWidth=3;" vertex="1" parent="eX8ZrraKsyN8Ze18W8im-221">
          <mxGeometry width="30" height="30" as="geometry" />
        </mxCell>
        <mxCell id="eX8ZrraKsyN8Ze18W8im-223" value="" style="shape=partialRectangle;html=1;whiteSpace=wrap;connectable=0;strokeColor=inherit;overflow=hidden;fillColor=none;top=0;left=0;bottom=0;right=0;pointerEvents=1;shadow=0;labelBackgroundColor=#CC6600;sketch=0;fillStyle=solid;strokeWidth=3;" vertex="1" parent="eX8ZrraKsyN8Ze18W8im-222">
          <mxGeometry width="30" height="30" as="geometry">
            <mxRectangle width="30" height="30" as="alternateBounds" />
          </mxGeometry>
        </mxCell>
        <mxCell id="eX8ZrraKsyN8Ze18W8im-224" value="" style="shape=tableRow;horizontal=0;startSize=0;swimlaneHead=0;swimlaneBody=0;strokeColor=inherit;top=0;left=0;bottom=0;right=0;collapsible=0;dropTarget=0;fillColor=none;points=[[0,0.5],[1,0.5]];portConstraint=eastwest;shadow=0;labelBackgroundColor=#CC6600;sketch=0;fillStyle=solid;strokeWidth=3;" vertex="1" parent="eX8ZrraKsyN8Ze18W8im-221">
          <mxGeometry y="30" width="30" height="30" as="geometry" />
        </mxCell>
        <mxCell id="eX8ZrraKsyN8Ze18W8im-225" value="" style="shape=partialRectangle;html=1;whiteSpace=wrap;connectable=0;strokeColor=inherit;overflow=hidden;fillColor=none;top=0;left=0;bottom=0;right=0;pointerEvents=1;shadow=0;labelBackgroundColor=#CC6600;sketch=0;fillStyle=solid;strokeWidth=3;" vertex="1" parent="eX8ZrraKsyN8Ze18W8im-224">
          <mxGeometry width="30" height="30" as="geometry">
            <mxRectangle width="30" height="30" as="alternateBounds" />
          </mxGeometry>
        </mxCell>
        <mxCell id="eX8ZrraKsyN8Ze18W8im-226" value="" style="shape=tableRow;horizontal=0;startSize=0;swimlaneHead=0;swimlaneBody=0;strokeColor=inherit;top=0;left=0;bottom=0;right=0;collapsible=0;dropTarget=0;fillColor=none;points=[[0,0.5],[1,0.5]];portConstraint=eastwest;shadow=0;labelBackgroundColor=#CC6600;sketch=0;fillStyle=solid;strokeWidth=3;" vertex="1" parent="eX8ZrraKsyN8Ze18W8im-221">
          <mxGeometry y="60" width="30" height="30" as="geometry" />
        </mxCell>
        <mxCell id="eX8ZrraKsyN8Ze18W8im-227" value="" style="shape=partialRectangle;html=1;whiteSpace=wrap;connectable=0;strokeColor=inherit;overflow=hidden;fillColor=none;top=0;left=0;bottom=0;right=0;pointerEvents=1;shadow=0;labelBackgroundColor=#CC6600;sketch=0;fillStyle=solid;strokeWidth=3;" vertex="1" parent="eX8ZrraKsyN8Ze18W8im-226">
          <mxGeometry width="30" height="30" as="geometry">
            <mxRectangle width="30" height="30" as="alternateBounds" />
          </mxGeometry>
        </mxCell>
        <mxCell id="eX8ZrraKsyN8Ze18W8im-228" value="" style="shape=tableRow;horizontal=0;startSize=0;swimlaneHead=0;swimlaneBody=0;strokeColor=inherit;top=0;left=0;bottom=0;right=0;collapsible=0;dropTarget=0;fillColor=none;points=[[0,0.5],[1,0.5]];portConstraint=eastwest;shadow=0;labelBackgroundColor=#CC6600;sketch=0;fillStyle=solid;strokeWidth=3;" vertex="1" parent="eX8ZrraKsyN8Ze18W8im-221">
          <mxGeometry y="90" width="30" height="30" as="geometry" />
        </mxCell>
        <mxCell id="eX8ZrraKsyN8Ze18W8im-229" value="" style="shape=partialRectangle;html=1;whiteSpace=wrap;connectable=0;strokeColor=inherit;overflow=hidden;fillColor=none;top=0;left=0;bottom=0;right=0;pointerEvents=1;shadow=0;labelBackgroundColor=#CC6600;sketch=0;fillStyle=solid;strokeWidth=3;" vertex="1" parent="eX8ZrraKsyN8Ze18W8im-228">
          <mxGeometry width="30" height="30" as="geometry">
            <mxRectangle width="30" height="30" as="alternateBounds" />
          </mxGeometry>
        </mxCell>
        <mxCell id="eX8ZrraKsyN8Ze18W8im-230" value="" style="endArrow=classic;html=1;rounded=0;" edge="1" parent="1">
          <mxGeometry width="50" height="50" relative="1" as="geometry">
            <mxPoint x="-315" y="234" as="sourcePoint" />
            <mxPoint x="-265" y="234" as="targetPoint" />
          </mxGeometry>
        </mxCell>
        <mxCell id="eX8ZrraKsyN8Ze18W8im-231" value="" style="shape=table;startSize=0;container=1;collapsible=0;childLayout=tableLayout;shadow=0;labelBackgroundColor=#CC6600;sketch=0;fillStyle=solid;strokeColor=default;strokeWidth=1;fillColor=#057621;gradientColor=none;" vertex="1" parent="1">
          <mxGeometry x="-210" y="282" width="30" height="149" as="geometry" />
        </mxCell>
        <mxCell id="eX8ZrraKsyN8Ze18W8im-232" value="" style="shape=tableRow;horizontal=0;startSize=0;swimlaneHead=0;swimlaneBody=0;strokeColor=inherit;top=0;left=0;bottom=0;right=0;collapsible=0;dropTarget=0;fillColor=none;points=[[0,0.5],[1,0.5]];portConstraint=eastwest;shadow=0;labelBackgroundColor=#CC6600;sketch=0;fillStyle=solid;strokeWidth=1;" vertex="1" parent="eX8ZrraKsyN8Ze18W8im-231">
          <mxGeometry width="30" height="30" as="geometry" />
        </mxCell>
        <mxCell id="eX8ZrraKsyN8Ze18W8im-233" value="" style="shape=partialRectangle;html=1;whiteSpace=wrap;connectable=0;strokeColor=inherit;overflow=hidden;fillColor=none;top=0;left=0;bottom=0;right=0;pointerEvents=1;shadow=0;labelBackgroundColor=#CC6600;sketch=0;fillStyle=solid;strokeWidth=1;" vertex="1" parent="eX8ZrraKsyN8Ze18W8im-232">
          <mxGeometry width="30" height="30" as="geometry">
            <mxRectangle width="30" height="30" as="alternateBounds" />
          </mxGeometry>
        </mxCell>
        <mxCell id="eX8ZrraKsyN8Ze18W8im-234" value="" style="shape=tableRow;horizontal=0;startSize=0;swimlaneHead=0;swimlaneBody=0;strokeColor=inherit;top=0;left=0;bottom=0;right=0;collapsible=0;dropTarget=0;fillColor=none;points=[[0,0.5],[1,0.5]];portConstraint=eastwest;shadow=0;labelBackgroundColor=#CC6600;sketch=0;fillStyle=solid;strokeWidth=1;" vertex="1" parent="eX8ZrraKsyN8Ze18W8im-231">
          <mxGeometry y="30" width="30" height="30" as="geometry" />
        </mxCell>
        <mxCell id="eX8ZrraKsyN8Ze18W8im-235" value="" style="shape=partialRectangle;html=1;whiteSpace=wrap;connectable=0;strokeColor=inherit;overflow=hidden;fillColor=none;top=0;left=0;bottom=0;right=0;pointerEvents=1;shadow=0;labelBackgroundColor=#CC6600;sketch=0;fillStyle=solid;strokeWidth=1;" vertex="1" parent="eX8ZrraKsyN8Ze18W8im-234">
          <mxGeometry width="30" height="30" as="geometry">
            <mxRectangle width="30" height="30" as="alternateBounds" />
          </mxGeometry>
        </mxCell>
        <mxCell id="eX8ZrraKsyN8Ze18W8im-236" value="" style="shape=tableRow;horizontal=0;startSize=0;swimlaneHead=0;swimlaneBody=0;strokeColor=inherit;top=0;left=0;bottom=0;right=0;collapsible=0;dropTarget=0;fillColor=none;points=[[0,0.5],[1,0.5]];portConstraint=eastwest;shadow=0;labelBackgroundColor=#CC6600;sketch=0;fillStyle=solid;strokeWidth=1;" vertex="1" parent="eX8ZrraKsyN8Ze18W8im-231">
          <mxGeometry y="60" width="30" height="29" as="geometry" />
        </mxCell>
        <mxCell id="eX8ZrraKsyN8Ze18W8im-237" value="" style="shape=partialRectangle;html=1;whiteSpace=wrap;connectable=0;strokeColor=inherit;overflow=hidden;fillColor=none;top=0;left=0;bottom=0;right=0;pointerEvents=1;shadow=0;labelBackgroundColor=#CC6600;sketch=0;fillStyle=solid;strokeWidth=1;" vertex="1" parent="eX8ZrraKsyN8Ze18W8im-236">
          <mxGeometry width="30" height="29" as="geometry">
            <mxRectangle width="30" height="29" as="alternateBounds" />
          </mxGeometry>
        </mxCell>
        <mxCell id="eX8ZrraKsyN8Ze18W8im-238" value="" style="shape=tableRow;horizontal=0;startSize=0;swimlaneHead=0;swimlaneBody=0;strokeColor=inherit;top=0;left=0;bottom=0;right=0;collapsible=0;dropTarget=0;fillColor=none;points=[[0,0.5],[1,0.5]];portConstraint=eastwest;shadow=0;labelBackgroundColor=#CC6600;sketch=0;fillStyle=solid;strokeWidth=1;" vertex="1" parent="eX8ZrraKsyN8Ze18W8im-231">
          <mxGeometry y="89" width="30" height="30" as="geometry" />
        </mxCell>
        <mxCell id="eX8ZrraKsyN8Ze18W8im-239" value="" style="shape=partialRectangle;html=1;whiteSpace=wrap;connectable=0;strokeColor=inherit;overflow=hidden;fillColor=none;top=0;left=0;bottom=0;right=0;pointerEvents=1;shadow=0;labelBackgroundColor=#CC6600;sketch=0;fillStyle=solid;strokeWidth=1;" vertex="1" parent="eX8ZrraKsyN8Ze18W8im-238">
          <mxGeometry width="30" height="30" as="geometry">
            <mxRectangle width="30" height="30" as="alternateBounds" />
          </mxGeometry>
        </mxCell>
        <mxCell id="eX8ZrraKsyN8Ze18W8im-240" value="" style="shape=tableRow;horizontal=0;startSize=0;swimlaneHead=0;swimlaneBody=0;strokeColor=inherit;top=0;left=0;bottom=0;right=0;collapsible=0;dropTarget=0;fillColor=none;points=[[0,0.5],[1,0.5]];portConstraint=eastwest;shadow=0;labelBackgroundColor=#CC6600;sketch=0;fillStyle=solid;strokeWidth=1;" vertex="1" parent="eX8ZrraKsyN8Ze18W8im-231">
          <mxGeometry y="119" width="30" height="30" as="geometry" />
        </mxCell>
        <mxCell id="eX8ZrraKsyN8Ze18W8im-241" value="" style="shape=partialRectangle;html=1;whiteSpace=wrap;connectable=0;strokeColor=inherit;overflow=hidden;fillColor=none;top=0;left=0;bottom=0;right=0;pointerEvents=1;shadow=0;labelBackgroundColor=#CC6600;sketch=0;fillStyle=solid;strokeWidth=1;" vertex="1" parent="eX8ZrraKsyN8Ze18W8im-240">
          <mxGeometry width="30" height="30" as="geometry">
            <mxRectangle width="30" height="30" as="alternateBounds" />
          </mxGeometry>
        </mxCell>
        <mxCell id="eX8ZrraKsyN8Ze18W8im-242" value="" style="endArrow=classic;html=1;rounded=0;" edge="1" parent="1">
          <mxGeometry width="50" height="50" relative="1" as="geometry">
            <mxPoint x="-310" y="365" as="sourcePoint" />
            <mxPoint x="-220" y="365" as="targetPoint" />
          </mxGeometry>
        </mxCell>
        <mxCell id="eX8ZrraKsyN8Ze18W8im-243" value="" style="shape=table;startSize=0;container=1;collapsible=0;childLayout=tableLayout;shadow=0;labelBackgroundColor=#CC6600;sketch=0;fillStyle=solid;strokeColor=default;strokeWidth=1;fillColor=#46d87e;gradientColor=none;" vertex="1" parent="1">
          <mxGeometry x="-263" y="409.5" width="30" height="149" as="geometry" />
        </mxCell>
        <mxCell id="eX8ZrraKsyN8Ze18W8im-244" value="" style="shape=tableRow;horizontal=0;startSize=0;swimlaneHead=0;swimlaneBody=0;strokeColor=inherit;top=0;left=0;bottom=0;right=0;collapsible=0;dropTarget=0;fillColor=none;points=[[0,0.5],[1,0.5]];portConstraint=eastwest;shadow=0;labelBackgroundColor=#CC6600;sketch=0;fillStyle=solid;strokeWidth=1;" vertex="1" parent="eX8ZrraKsyN8Ze18W8im-243">
          <mxGeometry width="30" height="30" as="geometry" />
        </mxCell>
        <mxCell id="eX8ZrraKsyN8Ze18W8im-245" value="" style="shape=partialRectangle;html=1;whiteSpace=wrap;connectable=0;strokeColor=inherit;overflow=hidden;fillColor=none;top=0;left=0;bottom=0;right=0;pointerEvents=1;shadow=0;labelBackgroundColor=#CC6600;sketch=0;fillStyle=solid;strokeWidth=1;" vertex="1" parent="eX8ZrraKsyN8Ze18W8im-244">
          <mxGeometry width="30" height="30" as="geometry">
            <mxRectangle width="30" height="30" as="alternateBounds" />
          </mxGeometry>
        </mxCell>
        <mxCell id="eX8ZrraKsyN8Ze18W8im-246" value="" style="shape=tableRow;horizontal=0;startSize=0;swimlaneHead=0;swimlaneBody=0;strokeColor=inherit;top=0;left=0;bottom=0;right=0;collapsible=0;dropTarget=0;fillColor=none;points=[[0,0.5],[1,0.5]];portConstraint=eastwest;shadow=0;labelBackgroundColor=#CC6600;sketch=0;fillStyle=solid;strokeWidth=1;" vertex="1" parent="eX8ZrraKsyN8Ze18W8im-243">
          <mxGeometry y="30" width="30" height="30" as="geometry" />
        </mxCell>
        <mxCell id="eX8ZrraKsyN8Ze18W8im-247" value="" style="shape=partialRectangle;html=1;whiteSpace=wrap;connectable=0;strokeColor=inherit;overflow=hidden;fillColor=none;top=0;left=0;bottom=0;right=0;pointerEvents=1;shadow=0;labelBackgroundColor=#CC6600;sketch=0;fillStyle=solid;strokeWidth=1;" vertex="1" parent="eX8ZrraKsyN8Ze18W8im-246">
          <mxGeometry width="30" height="30" as="geometry">
            <mxRectangle width="30" height="30" as="alternateBounds" />
          </mxGeometry>
        </mxCell>
        <mxCell id="eX8ZrraKsyN8Ze18W8im-248" value="" style="shape=tableRow;horizontal=0;startSize=0;swimlaneHead=0;swimlaneBody=0;strokeColor=inherit;top=0;left=0;bottom=0;right=0;collapsible=0;dropTarget=0;fillColor=none;points=[[0,0.5],[1,0.5]];portConstraint=eastwest;shadow=0;labelBackgroundColor=#CC6600;sketch=0;fillStyle=solid;strokeWidth=1;" vertex="1" parent="eX8ZrraKsyN8Ze18W8im-243">
          <mxGeometry y="60" width="30" height="29" as="geometry" />
        </mxCell>
        <mxCell id="eX8ZrraKsyN8Ze18W8im-249" value="" style="shape=partialRectangle;html=1;whiteSpace=wrap;connectable=0;strokeColor=inherit;overflow=hidden;fillColor=none;top=0;left=0;bottom=0;right=0;pointerEvents=1;shadow=0;labelBackgroundColor=#CC6600;sketch=0;fillStyle=solid;strokeWidth=1;" vertex="1" parent="eX8ZrraKsyN8Ze18W8im-248">
          <mxGeometry width="30" height="29" as="geometry">
            <mxRectangle width="30" height="29" as="alternateBounds" />
          </mxGeometry>
        </mxCell>
        <mxCell id="eX8ZrraKsyN8Ze18W8im-250" value="" style="shape=tableRow;horizontal=0;startSize=0;swimlaneHead=0;swimlaneBody=0;strokeColor=inherit;top=0;left=0;bottom=0;right=0;collapsible=0;dropTarget=0;fillColor=none;points=[[0,0.5],[1,0.5]];portConstraint=eastwest;shadow=0;labelBackgroundColor=#CC6600;sketch=0;fillStyle=solid;strokeWidth=1;" vertex="1" parent="eX8ZrraKsyN8Ze18W8im-243">
          <mxGeometry y="89" width="30" height="30" as="geometry" />
        </mxCell>
        <mxCell id="eX8ZrraKsyN8Ze18W8im-251" value="" style="shape=partialRectangle;html=1;whiteSpace=wrap;connectable=0;strokeColor=inherit;overflow=hidden;fillColor=none;top=0;left=0;bottom=0;right=0;pointerEvents=1;shadow=0;labelBackgroundColor=#CC6600;sketch=0;fillStyle=solid;strokeWidth=1;" vertex="1" parent="eX8ZrraKsyN8Ze18W8im-250">
          <mxGeometry width="30" height="30" as="geometry">
            <mxRectangle width="30" height="30" as="alternateBounds" />
          </mxGeometry>
        </mxCell>
        <mxCell id="eX8ZrraKsyN8Ze18W8im-252" value="" style="shape=tableRow;horizontal=0;startSize=0;swimlaneHead=0;swimlaneBody=0;strokeColor=inherit;top=0;left=0;bottom=0;right=0;collapsible=0;dropTarget=0;fillColor=none;points=[[0,0.5],[1,0.5]];portConstraint=eastwest;shadow=0;labelBackgroundColor=#CC6600;sketch=0;fillStyle=solid;strokeWidth=1;" vertex="1" parent="eX8ZrraKsyN8Ze18W8im-243">
          <mxGeometry y="119" width="30" height="30" as="geometry" />
        </mxCell>
        <mxCell id="eX8ZrraKsyN8Ze18W8im-253" value="" style="shape=partialRectangle;html=1;whiteSpace=wrap;connectable=0;strokeColor=inherit;overflow=hidden;fillColor=none;top=0;left=0;bottom=0;right=0;pointerEvents=1;shadow=0;labelBackgroundColor=#CC6600;sketch=0;fillStyle=solid;strokeWidth=1;" vertex="1" parent="eX8ZrraKsyN8Ze18W8im-252">
          <mxGeometry width="30" height="30" as="geometry">
            <mxRectangle width="30" height="30" as="alternateBounds" />
          </mxGeometry>
        </mxCell>
        <mxCell id="eX8ZrraKsyN8Ze18W8im-254" value="" style="endArrow=classic;html=1;rounded=0;" edge="1" parent="1">
          <mxGeometry width="50" height="50" relative="1" as="geometry">
            <mxPoint x="-313" y="483.57" as="sourcePoint" />
            <mxPoint x="-263" y="483.57" as="targetPoint" />
          </mxGeometry>
        </mxCell>
        <mxCell id="eX8ZrraKsyN8Ze18W8im-255" value="" style="shape=table;startSize=0;container=1;collapsible=0;childLayout=tableLayout;shadow=0;labelBackgroundColor=#CC6600;sketch=0;fillStyle=solid;strokeColor=#0f0f0f;strokeWidth=1;fillColor=#f5f170;gradientColor=none;" vertex="1" parent="1">
          <mxGeometry x="-264" y="614" width="30" height="180" as="geometry" />
        </mxCell>
        <mxCell id="eX8ZrraKsyN8Ze18W8im-256" value="" style="shape=tableRow;horizontal=0;startSize=0;swimlaneHead=0;swimlaneBody=0;strokeColor=inherit;top=0;left=0;bottom=0;right=0;collapsible=0;dropTarget=0;fillColor=none;points=[[0,0.5],[1,0.5]];portConstraint=eastwest;shadow=0;labelBackgroundColor=#CC6600;sketch=0;fillStyle=solid;strokeWidth=1;" vertex="1" parent="eX8ZrraKsyN8Ze18W8im-255">
          <mxGeometry width="30" height="31" as="geometry" />
        </mxCell>
        <mxCell id="eX8ZrraKsyN8Ze18W8im-257" value="" style="shape=partialRectangle;html=1;whiteSpace=wrap;connectable=0;strokeColor=inherit;overflow=hidden;fillColor=none;top=0;left=0;bottom=0;right=0;pointerEvents=1;shadow=0;labelBackgroundColor=#CC6600;sketch=0;fillStyle=solid;strokeWidth=1;" vertex="1" parent="eX8ZrraKsyN8Ze18W8im-256">
          <mxGeometry width="30" height="31" as="geometry">
            <mxRectangle width="30" height="31" as="alternateBounds" />
          </mxGeometry>
        </mxCell>
        <mxCell id="eX8ZrraKsyN8Ze18W8im-258" value="" style="shape=tableRow;horizontal=0;startSize=0;swimlaneHead=0;swimlaneBody=0;strokeColor=inherit;top=0;left=0;bottom=0;right=0;collapsible=0;dropTarget=0;fillColor=none;points=[[0,0.5],[1,0.5]];portConstraint=eastwest;shadow=0;labelBackgroundColor=#CC6600;sketch=0;fillStyle=solid;strokeWidth=1;" vertex="1" parent="eX8ZrraKsyN8Ze18W8im-255">
          <mxGeometry y="31" width="30" height="28" as="geometry" />
        </mxCell>
        <mxCell id="eX8ZrraKsyN8Ze18W8im-259" value="" style="shape=partialRectangle;html=1;whiteSpace=wrap;connectable=0;strokeColor=inherit;overflow=hidden;fillColor=none;top=0;left=0;bottom=0;right=0;pointerEvents=1;shadow=0;labelBackgroundColor=#CC6600;sketch=0;fillStyle=solid;strokeWidth=1;" vertex="1" parent="eX8ZrraKsyN8Ze18W8im-258">
          <mxGeometry width="30" height="28" as="geometry">
            <mxRectangle width="30" height="28" as="alternateBounds" />
          </mxGeometry>
        </mxCell>
        <mxCell id="eX8ZrraKsyN8Ze18W8im-260" value="" style="shape=tableRow;horizontal=0;startSize=0;swimlaneHead=0;swimlaneBody=0;strokeColor=inherit;top=0;left=0;bottom=0;right=0;collapsible=0;dropTarget=0;fillColor=none;points=[[0,0.5],[1,0.5]];portConstraint=eastwest;shadow=0;labelBackgroundColor=#CC6600;sketch=0;fillStyle=solid;strokeWidth=1;" vertex="1" parent="eX8ZrraKsyN8Ze18W8im-255">
          <mxGeometry y="59" width="30" height="31" as="geometry" />
        </mxCell>
        <mxCell id="eX8ZrraKsyN8Ze18W8im-261" value="" style="shape=partialRectangle;html=1;whiteSpace=wrap;connectable=0;strokeColor=inherit;overflow=hidden;fillColor=none;top=0;left=0;bottom=0;right=0;pointerEvents=1;shadow=0;labelBackgroundColor=#CC6600;sketch=0;fillStyle=solid;strokeWidth=1;" vertex="1" parent="eX8ZrraKsyN8Ze18W8im-260">
          <mxGeometry width="30" height="31" as="geometry">
            <mxRectangle width="30" height="31" as="alternateBounds" />
          </mxGeometry>
        </mxCell>
        <mxCell id="eX8ZrraKsyN8Ze18W8im-262" value="" style="shape=tableRow;horizontal=0;startSize=0;swimlaneHead=0;swimlaneBody=0;strokeColor=inherit;top=0;left=0;bottom=0;right=0;collapsible=0;dropTarget=0;fillColor=none;points=[[0,0.5],[1,0.5]];portConstraint=eastwest;shadow=0;labelBackgroundColor=#CC6600;sketch=0;fillStyle=solid;strokeWidth=1;" vertex="1" parent="eX8ZrraKsyN8Ze18W8im-255">
          <mxGeometry y="90" width="30" height="31" as="geometry" />
        </mxCell>
        <mxCell id="eX8ZrraKsyN8Ze18W8im-263" value="" style="shape=partialRectangle;html=1;whiteSpace=wrap;connectable=0;strokeColor=inherit;overflow=hidden;fillColor=none;top=0;left=0;bottom=0;right=0;pointerEvents=1;shadow=0;labelBackgroundColor=#CC6600;sketch=0;fillStyle=solid;strokeWidth=1;" vertex="1" parent="eX8ZrraKsyN8Ze18W8im-262">
          <mxGeometry width="30" height="31" as="geometry">
            <mxRectangle width="30" height="31" as="alternateBounds" />
          </mxGeometry>
        </mxCell>
        <mxCell id="eX8ZrraKsyN8Ze18W8im-264" value="" style="shape=tableRow;horizontal=0;startSize=0;swimlaneHead=0;swimlaneBody=0;strokeColor=inherit;top=0;left=0;bottom=0;right=0;collapsible=0;dropTarget=0;fillColor=none;points=[[0,0.5],[1,0.5]];portConstraint=eastwest;shadow=0;labelBackgroundColor=#CC6600;sketch=0;fillStyle=solid;strokeWidth=1;" vertex="1" parent="eX8ZrraKsyN8Ze18W8im-255">
          <mxGeometry y="121" width="30" height="28" as="geometry" />
        </mxCell>
        <mxCell id="eX8ZrraKsyN8Ze18W8im-265" value="" style="shape=partialRectangle;html=1;whiteSpace=wrap;connectable=0;strokeColor=inherit;overflow=hidden;fillColor=none;top=0;left=0;bottom=0;right=0;pointerEvents=1;shadow=0;labelBackgroundColor=#CC6600;sketch=0;fillStyle=solid;strokeWidth=1;" vertex="1" parent="eX8ZrraKsyN8Ze18W8im-264">
          <mxGeometry width="30" height="28" as="geometry">
            <mxRectangle width="30" height="28" as="alternateBounds" />
          </mxGeometry>
        </mxCell>
        <mxCell id="eX8ZrraKsyN8Ze18W8im-266" value="" style="shape=tableRow;horizontal=0;startSize=0;swimlaneHead=0;swimlaneBody=0;strokeColor=inherit;top=0;left=0;bottom=0;right=0;collapsible=0;dropTarget=0;fillColor=none;points=[[0,0.5],[1,0.5]];portConstraint=eastwest;shadow=0;labelBackgroundColor=#CC6600;sketch=0;fillStyle=solid;strokeWidth=1;" vertex="1" parent="eX8ZrraKsyN8Ze18W8im-255">
          <mxGeometry y="149" width="30" height="31" as="geometry" />
        </mxCell>
        <mxCell id="eX8ZrraKsyN8Ze18W8im-267" value="" style="shape=partialRectangle;html=1;whiteSpace=wrap;connectable=0;strokeColor=inherit;overflow=hidden;fillColor=none;top=0;left=0;bottom=0;right=0;pointerEvents=1;shadow=0;labelBackgroundColor=#CC6600;sketch=0;fillStyle=solid;strokeWidth=1;" vertex="1" parent="eX8ZrraKsyN8Ze18W8im-266">
          <mxGeometry width="30" height="31" as="geometry">
            <mxRectangle width="30" height="31" as="alternateBounds" />
          </mxGeometry>
        </mxCell>
        <mxCell id="eX8ZrraKsyN8Ze18W8im-268" value="" style="shape=table;startSize=0;container=1;collapsible=0;childLayout=tableLayout;shadow=0;labelBackgroundColor=#CC6600;sketch=0;fillStyle=solid;strokeColor=default;strokeWidth=1;fillColor=#99950f;gradientColor=none;" vertex="1" parent="1">
          <mxGeometry x="-210" y="510" width="30" height="180" as="geometry" />
        </mxCell>
        <mxCell id="eX8ZrraKsyN8Ze18W8im-269" value="" style="shape=tableRow;horizontal=0;startSize=0;swimlaneHead=0;swimlaneBody=0;strokeColor=inherit;top=0;left=0;bottom=0;right=0;collapsible=0;dropTarget=0;fillColor=none;points=[[0,0.5],[1,0.5]];portConstraint=eastwest;shadow=0;labelBackgroundColor=#CC6600;sketch=0;fillStyle=solid;strokeWidth=1;" vertex="1" parent="eX8ZrraKsyN8Ze18W8im-268">
          <mxGeometry width="30" height="31" as="geometry" />
        </mxCell>
        <mxCell id="eX8ZrraKsyN8Ze18W8im-270" value="" style="shape=partialRectangle;html=1;whiteSpace=wrap;connectable=0;strokeColor=inherit;overflow=hidden;fillColor=none;top=0;left=0;bottom=0;right=0;pointerEvents=1;shadow=0;labelBackgroundColor=#CC6600;sketch=0;fillStyle=solid;strokeWidth=1;" vertex="1" parent="eX8ZrraKsyN8Ze18W8im-269">
          <mxGeometry width="30" height="31" as="geometry">
            <mxRectangle width="30" height="31" as="alternateBounds" />
          </mxGeometry>
        </mxCell>
        <mxCell id="eX8ZrraKsyN8Ze18W8im-271" value="" style="shape=tableRow;horizontal=0;startSize=0;swimlaneHead=0;swimlaneBody=0;strokeColor=inherit;top=0;left=0;bottom=0;right=0;collapsible=0;dropTarget=0;fillColor=none;points=[[0,0.5],[1,0.5]];portConstraint=eastwest;shadow=0;labelBackgroundColor=#CC6600;sketch=0;fillStyle=solid;strokeWidth=1;" vertex="1" parent="eX8ZrraKsyN8Ze18W8im-268">
          <mxGeometry y="31" width="30" height="28" as="geometry" />
        </mxCell>
        <mxCell id="eX8ZrraKsyN8Ze18W8im-272" value="" style="shape=partialRectangle;html=1;whiteSpace=wrap;connectable=0;strokeColor=inherit;overflow=hidden;fillColor=none;top=0;left=0;bottom=0;right=0;pointerEvents=1;shadow=0;labelBackgroundColor=#CC6600;sketch=0;fillStyle=solid;strokeWidth=1;" vertex="1" parent="eX8ZrraKsyN8Ze18W8im-271">
          <mxGeometry width="30" height="28" as="geometry">
            <mxRectangle width="30" height="28" as="alternateBounds" />
          </mxGeometry>
        </mxCell>
        <mxCell id="eX8ZrraKsyN8Ze18W8im-273" value="" style="shape=tableRow;horizontal=0;startSize=0;swimlaneHead=0;swimlaneBody=0;strokeColor=inherit;top=0;left=0;bottom=0;right=0;collapsible=0;dropTarget=0;fillColor=none;points=[[0,0.5],[1,0.5]];portConstraint=eastwest;shadow=0;labelBackgroundColor=#CC6600;sketch=0;fillStyle=solid;strokeWidth=1;" vertex="1" parent="eX8ZrraKsyN8Ze18W8im-268">
          <mxGeometry y="59" width="30" height="31" as="geometry" />
        </mxCell>
        <mxCell id="eX8ZrraKsyN8Ze18W8im-274" value="" style="shape=partialRectangle;html=1;whiteSpace=wrap;connectable=0;strokeColor=inherit;overflow=hidden;fillColor=none;top=0;left=0;bottom=0;right=0;pointerEvents=1;shadow=0;labelBackgroundColor=#CC6600;sketch=0;fillStyle=solid;strokeWidth=1;" vertex="1" parent="eX8ZrraKsyN8Ze18W8im-273">
          <mxGeometry width="30" height="31" as="geometry">
            <mxRectangle width="30" height="31" as="alternateBounds" />
          </mxGeometry>
        </mxCell>
        <mxCell id="eX8ZrraKsyN8Ze18W8im-275" value="" style="shape=tableRow;horizontal=0;startSize=0;swimlaneHead=0;swimlaneBody=0;strokeColor=inherit;top=0;left=0;bottom=0;right=0;collapsible=0;dropTarget=0;fillColor=none;points=[[0,0.5],[1,0.5]];portConstraint=eastwest;shadow=0;labelBackgroundColor=#CC6600;sketch=0;fillStyle=solid;strokeWidth=1;" vertex="1" parent="eX8ZrraKsyN8Ze18W8im-268">
          <mxGeometry y="90" width="30" height="31" as="geometry" />
        </mxCell>
        <mxCell id="eX8ZrraKsyN8Ze18W8im-276" value="" style="shape=partialRectangle;html=1;whiteSpace=wrap;connectable=0;strokeColor=inherit;overflow=hidden;fillColor=none;top=0;left=0;bottom=0;right=0;pointerEvents=1;shadow=0;labelBackgroundColor=#CC6600;sketch=0;fillStyle=solid;strokeWidth=1;" vertex="1" parent="eX8ZrraKsyN8Ze18W8im-275">
          <mxGeometry width="30" height="31" as="geometry">
            <mxRectangle width="30" height="31" as="alternateBounds" />
          </mxGeometry>
        </mxCell>
        <mxCell id="eX8ZrraKsyN8Ze18W8im-277" value="" style="shape=tableRow;horizontal=0;startSize=0;swimlaneHead=0;swimlaneBody=0;strokeColor=inherit;top=0;left=0;bottom=0;right=0;collapsible=0;dropTarget=0;fillColor=none;points=[[0,0.5],[1,0.5]];portConstraint=eastwest;shadow=0;labelBackgroundColor=#CC6600;sketch=0;fillStyle=solid;strokeWidth=1;" vertex="1" parent="eX8ZrraKsyN8Ze18W8im-268">
          <mxGeometry y="121" width="30" height="28" as="geometry" />
        </mxCell>
        <mxCell id="eX8ZrraKsyN8Ze18W8im-278" value="" style="shape=partialRectangle;html=1;whiteSpace=wrap;connectable=0;strokeColor=inherit;overflow=hidden;fillColor=none;top=0;left=0;bottom=0;right=0;pointerEvents=1;shadow=0;labelBackgroundColor=#CC6600;sketch=0;fillStyle=solid;strokeWidth=1;" vertex="1" parent="eX8ZrraKsyN8Ze18W8im-277">
          <mxGeometry width="30" height="28" as="geometry">
            <mxRectangle width="30" height="28" as="alternateBounds" />
          </mxGeometry>
        </mxCell>
        <mxCell id="eX8ZrraKsyN8Ze18W8im-279" value="" style="shape=tableRow;horizontal=0;startSize=0;swimlaneHead=0;swimlaneBody=0;strokeColor=inherit;top=0;left=0;bottom=0;right=0;collapsible=0;dropTarget=0;fillColor=none;points=[[0,0.5],[1,0.5]];portConstraint=eastwest;shadow=0;labelBackgroundColor=#CC6600;sketch=0;fillStyle=solid;strokeWidth=1;" vertex="1" parent="eX8ZrraKsyN8Ze18W8im-268">
          <mxGeometry y="149" width="30" height="31" as="geometry" />
        </mxCell>
        <mxCell id="eX8ZrraKsyN8Ze18W8im-280" value="" style="shape=partialRectangle;html=1;whiteSpace=wrap;connectable=0;strokeColor=inherit;overflow=hidden;fillColor=none;top=0;left=0;bottom=0;right=0;pointerEvents=1;shadow=0;labelBackgroundColor=#CC6600;sketch=0;fillStyle=solid;strokeWidth=1;" vertex="1" parent="eX8ZrraKsyN8Ze18W8im-279">
          <mxGeometry width="30" height="31" as="geometry">
            <mxRectangle width="30" height="31" as="alternateBounds" />
          </mxGeometry>
        </mxCell>
        <mxCell id="eX8ZrraKsyN8Ze18W8im-281" value="" style="endArrow=classic;html=1;rounded=0;" edge="1" parent="1">
          <mxGeometry width="50" height="50" relative="1" as="geometry">
            <mxPoint x="-310" y="586.47" as="sourcePoint" />
            <mxPoint x="-220" y="586.47" as="targetPoint" />
          </mxGeometry>
        </mxCell>
        <mxCell id="eX8ZrraKsyN8Ze18W8im-282" value="" style="endArrow=classic;html=1;rounded=0;" edge="1" parent="1">
          <mxGeometry width="50" height="50" relative="1" as="geometry">
            <mxPoint x="-314" y="660" as="sourcePoint" />
            <mxPoint x="-264" y="660" as="targetPoint" />
          </mxGeometry>
        </mxCell>
        <mxCell id="eX8ZrraKsyN8Ze18W8im-294" value="" style="shape=table;startSize=0;container=1;collapsible=0;childLayout=tableLayout;shadow=0;labelBackgroundColor=#CC6600;sketch=0;fillStyle=auto;strokeColor=#6D1F00;strokeWidth=1;fillColor=#a0522d;gradientColor=none;fontColor=#ffffff;swimlaneFillColor=none;" vertex="1" parent="1">
          <mxGeometry x="-110" y="130" width="30" height="30" as="geometry" />
        </mxCell>
        <mxCell id="eX8ZrraKsyN8Ze18W8im-295" value="" style="shape=tableRow;horizontal=0;startSize=0;swimlaneHead=0;swimlaneBody=0;strokeColor=inherit;top=0;left=0;bottom=0;right=0;collapsible=0;dropTarget=0;fillColor=none;points=[[0,0.5],[1,0.5]];portConstraint=eastwest;shadow=0;labelBackgroundColor=#CC6600;sketch=0;fillStyle=solid;strokeWidth=1;" vertex="1" parent="eX8ZrraKsyN8Ze18W8im-294">
          <mxGeometry width="30" height="30" as="geometry" />
        </mxCell>
        <mxCell id="eX8ZrraKsyN8Ze18W8im-296" value="" style="shape=partialRectangle;html=1;whiteSpace=wrap;connectable=0;strokeColor=inherit;overflow=hidden;fillColor=none;top=0;left=0;bottom=0;right=0;pointerEvents=1;shadow=0;labelBackgroundColor=#CC6600;sketch=0;fillStyle=solid;strokeWidth=1;" vertex="1" parent="eX8ZrraKsyN8Ze18W8im-295">
          <mxGeometry width="30" height="30" as="geometry">
            <mxRectangle width="30" height="30" as="alternateBounds" />
          </mxGeometry>
        </mxCell>
        <mxCell id="eX8ZrraKsyN8Ze18W8im-297" value="" style="shape=table;startSize=0;container=1;collapsible=0;childLayout=tableLayout;shadow=0;labelBackgroundColor=#CC6600;sketch=0;fillStyle=auto;strokeColor=#6D1F00;strokeWidth=1;fillColor=#D66E3C;gradientColor=none;fontColor=#ffffff;swimlaneFillColor=none;" vertex="1" parent="1">
          <mxGeometry x="-110" y="160" width="30" height="30" as="geometry" />
        </mxCell>
        <mxCell id="eX8ZrraKsyN8Ze18W8im-298" value="" style="shape=tableRow;horizontal=0;startSize=0;swimlaneHead=0;swimlaneBody=0;strokeColor=inherit;top=0;left=0;bottom=0;right=0;collapsible=0;dropTarget=0;fillColor=none;points=[[0,0.5],[1,0.5]];portConstraint=eastwest;shadow=0;labelBackgroundColor=#CC6600;sketch=0;fillStyle=solid;strokeWidth=1;" vertex="1" parent="eX8ZrraKsyN8Ze18W8im-297">
          <mxGeometry width="30" height="30" as="geometry" />
        </mxCell>
        <mxCell id="eX8ZrraKsyN8Ze18W8im-299" value="" style="shape=partialRectangle;html=1;whiteSpace=wrap;connectable=0;strokeColor=inherit;overflow=hidden;fillColor=none;top=0;left=0;bottom=0;right=0;pointerEvents=1;shadow=0;labelBackgroundColor=#CC6600;sketch=0;fillStyle=solid;strokeWidth=1;" vertex="1" parent="eX8ZrraKsyN8Ze18W8im-298">
          <mxGeometry width="30" height="30" as="geometry">
            <mxRectangle width="30" height="30" as="alternateBounds" />
          </mxGeometry>
        </mxCell>
        <mxCell id="eX8ZrraKsyN8Ze18W8im-300" value="" style="shape=table;startSize=0;container=1;collapsible=0;childLayout=tableLayout;shadow=0;labelBackgroundColor=#CC6600;sketch=0;fillStyle=auto;strokeColor=#6D1F00;strokeWidth=1;fillColor=#a0522d;gradientColor=none;fontColor=#ffffff;swimlaneFillColor=none;" vertex="1" parent="1">
          <mxGeometry x="-110" y="404" width="30" height="30" as="geometry" />
        </mxCell>
        <mxCell id="eX8ZrraKsyN8Ze18W8im-301" value="" style="shape=tableRow;horizontal=0;startSize=0;swimlaneHead=0;swimlaneBody=0;strokeColor=inherit;top=0;left=0;bottom=0;right=0;collapsible=0;dropTarget=0;fillColor=none;points=[[0,0.5],[1,0.5]];portConstraint=eastwest;shadow=0;labelBackgroundColor=#CC6600;sketch=0;fillStyle=solid;strokeWidth=1;" vertex="1" parent="eX8ZrraKsyN8Ze18W8im-300">
          <mxGeometry width="30" height="30" as="geometry" />
        </mxCell>
        <mxCell id="eX8ZrraKsyN8Ze18W8im-302" value="" style="shape=partialRectangle;html=1;whiteSpace=wrap;connectable=0;strokeColor=default;overflow=hidden;fillColor=#057621;top=0;left=0;bottom=0;right=0;pointerEvents=1;shadow=0;labelBackgroundColor=#CC6600;sketch=0;fillStyle=solid;strokeWidth=1;startSize=0;gradientColor=none;" vertex="1" parent="eX8ZrraKsyN8Ze18W8im-301">
          <mxGeometry width="30" height="30" as="geometry">
            <mxRectangle width="30" height="30" as="alternateBounds" />
          </mxGeometry>
        </mxCell>
        <mxCell id="eX8ZrraKsyN8Ze18W8im-303" value="" style="shape=table;startSize=0;container=1;collapsible=0;childLayout=tableLayout;shadow=0;labelBackgroundColor=#CC6600;sketch=0;fillStyle=auto;strokeColor=#6D1F00;strokeWidth=1;fillColor=#D66E3C;gradientColor=none;fontColor=#ffffff;swimlaneFillColor=none;" vertex="1" parent="1">
          <mxGeometry x="-110" y="434" width="30" height="30" as="geometry" />
        </mxCell>
        <mxCell id="eX8ZrraKsyN8Ze18W8im-304" value="" style="shape=tableRow;horizontal=0;startSize=0;swimlaneHead=0;swimlaneBody=0;strokeColor=inherit;top=0;left=0;bottom=0;right=0;collapsible=0;dropTarget=0;fillColor=none;points=[[0,0.5],[1,0.5]];portConstraint=eastwest;shadow=0;labelBackgroundColor=#CC6600;sketch=0;fillStyle=solid;strokeWidth=1;" vertex="1" parent="eX8ZrraKsyN8Ze18W8im-303">
          <mxGeometry width="30" height="30" as="geometry" />
        </mxCell>
        <mxCell id="eX8ZrraKsyN8Ze18W8im-305" value="" style="shape=partialRectangle;html=1;whiteSpace=wrap;connectable=0;strokeColor=default;overflow=hidden;fillColor=#46d87e;top=0;left=0;bottom=0;right=0;pointerEvents=1;shadow=0;labelBackgroundColor=#CC6600;sketch=0;fillStyle=solid;strokeWidth=1;startSize=0;gradientColor=none;" vertex="1" parent="eX8ZrraKsyN8Ze18W8im-304">
          <mxGeometry width="30" height="30" as="geometry">
            <mxRectangle width="30" height="30" as="alternateBounds" />
          </mxGeometry>
        </mxCell>
        <mxCell id="eX8ZrraKsyN8Ze18W8im-312" value="" style="shape=table;startSize=0;container=1;collapsible=0;childLayout=tableLayout;shadow=0;labelBackgroundColor=#CC6600;sketch=0;fillStyle=auto;strokeColor=#6D1F00;strokeWidth=1;fillColor=#a0522d;gradientColor=none;fontColor=#ffffff;swimlaneFillColor=none;" vertex="1" parent="1">
          <mxGeometry x="-110" y="650" width="30" height="30" as="geometry" />
        </mxCell>
        <mxCell id="eX8ZrraKsyN8Ze18W8im-313" value="" style="shape=tableRow;horizontal=0;startSize=0;swimlaneHead=0;swimlaneBody=0;strokeColor=default;top=0;left=0;bottom=0;right=0;collapsible=0;dropTarget=0;fillColor=#99950f;points=[[0,0.5],[1,0.5]];portConstraint=eastwest;shadow=0;labelBackgroundColor=#CC6600;sketch=0;fillStyle=solid;strokeWidth=1;gradientColor=none;" vertex="1" parent="eX8ZrraKsyN8Ze18W8im-312">
          <mxGeometry width="30" height="30" as="geometry" />
        </mxCell>
        <mxCell id="eX8ZrraKsyN8Ze18W8im-314" value="" style="shape=partialRectangle;html=1;whiteSpace=wrap;connectable=0;strokeColor=inherit;overflow=hidden;fillColor=none;top=0;left=0;bottom=0;right=0;pointerEvents=1;shadow=0;labelBackgroundColor=#CC6600;sketch=0;fillStyle=solid;strokeWidth=1;" vertex="1" parent="eX8ZrraKsyN8Ze18W8im-313">
          <mxGeometry width="30" height="30" as="geometry">
            <mxRectangle width="30" height="30" as="alternateBounds" />
          </mxGeometry>
        </mxCell>
        <mxCell id="eX8ZrraKsyN8Ze18W8im-315" value="" style="shape=table;startSize=0;container=1;collapsible=0;childLayout=tableLayout;shadow=0;labelBackgroundColor=#CC6600;sketch=0;fillStyle=solid;strokeColor=#0f0f0f;strokeWidth=1;fillColor=#f5f170;gradientColor=none;fontColor=default;swimlaneFillColor=none;" vertex="1" parent="1">
          <mxGeometry x="-110" y="680" width="30" height="30" as="geometry" />
        </mxCell>
        <mxCell id="eX8ZrraKsyN8Ze18W8im-316" value="" style="shape=tableRow;horizontal=0;startSize=0;swimlaneHead=0;swimlaneBody=0;strokeColor=inherit;top=0;left=0;bottom=0;right=0;collapsible=0;dropTarget=0;fillColor=none;points=[[0,0.5],[1,0.5]];portConstraint=eastwest;shadow=0;labelBackgroundColor=#CC6600;sketch=0;fillStyle=solid;strokeWidth=1;" vertex="1" parent="eX8ZrraKsyN8Ze18W8im-315">
          <mxGeometry width="30" height="30" as="geometry" />
        </mxCell>
        <mxCell id="eX8ZrraKsyN8Ze18W8im-317" value="" style="shape=partialRectangle;html=1;whiteSpace=wrap;connectable=0;strokeColor=inherit;overflow=hidden;fillColor=none;top=0;left=0;bottom=0;right=0;pointerEvents=1;shadow=0;labelBackgroundColor=#CC6600;sketch=0;fillStyle=solid;strokeWidth=1;" vertex="1" parent="eX8ZrraKsyN8Ze18W8im-316">
          <mxGeometry width="30" height="30" as="geometry">
            <mxRectangle width="30" height="30" as="alternateBounds" />
          </mxGeometry>
        </mxCell>
        <mxCell id="eX8ZrraKsyN8Ze18W8im-320" value="" style="endArrow=classic;html=1;rounded=0;exitX=1.033;exitY=0.058;exitDx=0;exitDy=0;exitPerimeter=0;entryX=0;entryY=0.5;entryDx=0;entryDy=0;" edge="1" parent="1" source="eX8ZrraKsyN8Ze18W8im-226" target="eX8ZrraKsyN8Ze18W8im-298">
          <mxGeometry width="50" height="50" relative="1" as="geometry">
            <mxPoint x="-100" y="300" as="sourcePoint" />
            <mxPoint x="-50" y="250" as="targetPoint" />
          </mxGeometry>
        </mxCell>
        <mxCell id="eX8ZrraKsyN8Ze18W8im-321" value="" style="endArrow=classic;html=1;rounded=0;exitX=1;exitY=0.106;exitDx=0;exitDy=0;exitPerimeter=0;entryX=0;entryY=0.5;entryDx=0;entryDy=0;" edge="1" parent="1" source="eX8ZrraKsyN8Ze18W8im-216" target="eX8ZrraKsyN8Ze18W8im-295">
          <mxGeometry width="50" height="50" relative="1" as="geometry">
            <mxPoint x="-100" y="300" as="sourcePoint" />
            <mxPoint x="-50" y="250" as="targetPoint" />
          </mxGeometry>
        </mxCell>
        <mxCell id="eX8ZrraKsyN8Ze18W8im-322" value="" style="endArrow=classic;html=1;rounded=0;exitX=1;exitY=0.5;exitDx=0;exitDy=0;entryX=0;entryY=0.25;entryDx=0;entryDy=0;" edge="1" parent="1" source="eX8ZrraKsyN8Ze18W8im-236" target="eX8ZrraKsyN8Ze18W8im-300">
          <mxGeometry width="50" height="50" relative="1" as="geometry">
            <mxPoint x="-80" y="330" as="sourcePoint" />
            <mxPoint x="-30" y="280" as="targetPoint" />
          </mxGeometry>
        </mxCell>
        <mxCell id="eX8ZrraKsyN8Ze18W8im-323" value="" style="endArrow=classic;html=1;rounded=0;exitX=1;exitY=0.5;exitDx=0;exitDy=0;entryX=0;entryY=0.5;entryDx=0;entryDy=0;" edge="1" parent="1" source="eX8ZrraKsyN8Ze18W8im-248" target="eX8ZrraKsyN8Ze18W8im-303">
          <mxGeometry width="50" height="50" relative="1" as="geometry">
            <mxPoint x="-80" y="330" as="sourcePoint" />
            <mxPoint x="-30" y="280" as="targetPoint" />
          </mxGeometry>
        </mxCell>
        <mxCell id="eX8ZrraKsyN8Ze18W8im-324" value="" style="endArrow=classic;html=1;rounded=0;exitX=1;exitY=0.5;exitDx=0;exitDy=0;entryX=0;entryY=0.5;entryDx=0;entryDy=0;" edge="1" parent="1" source="eX8ZrraKsyN8Ze18W8im-273" target="eX8ZrraKsyN8Ze18W8im-313">
          <mxGeometry width="50" height="50" relative="1" as="geometry">
            <mxPoint x="-80" y="480" as="sourcePoint" />
            <mxPoint x="-30" y="430" as="targetPoint" />
          </mxGeometry>
        </mxCell>
        <mxCell id="eX8ZrraKsyN8Ze18W8im-325" value="" style="endArrow=classic;html=1;rounded=0;exitX=1;exitY=0.5;exitDx=0;exitDy=0;entryX=0;entryY=0.5;entryDx=0;entryDy=0;" edge="1" parent="1" source="eX8ZrraKsyN8Ze18W8im-262" target="eX8ZrraKsyN8Ze18W8im-316">
          <mxGeometry width="50" height="50" relative="1" as="geometry">
            <mxPoint x="-80" y="480" as="sourcePoint" />
            <mxPoint x="-30" y="430" as="targetPoint" />
          </mxGeometry>
        </mxCell>
        <mxCell id="eX8ZrraKsyN8Ze18W8im-326" value="" style="shape=table;startSize=0;container=1;collapsible=0;childLayout=tableLayout;shadow=0;labelBackgroundColor=#CC6600;sketch=0;fillStyle=auto;strokeColor=#6D1F00;strokeWidth=1;fillColor=#a0522d;gradientColor=none;fontColor=#ffffff;swimlaneFillColor=none;" vertex="1" parent="1">
          <mxGeometry x="23" y="346" width="30" height="30" as="geometry" />
        </mxCell>
        <mxCell id="eX8ZrraKsyN8Ze18W8im-327" value="" style="shape=tableRow;horizontal=0;startSize=0;swimlaneHead=0;swimlaneBody=0;strokeColor=inherit;top=0;left=0;bottom=0;right=0;collapsible=0;dropTarget=0;fillColor=none;points=[[0,0.5],[1,0.5]];portConstraint=eastwest;shadow=0;labelBackgroundColor=#CC6600;sketch=0;fillStyle=solid;strokeWidth=1;" vertex="1" parent="eX8ZrraKsyN8Ze18W8im-326">
          <mxGeometry width="30" height="30" as="geometry" />
        </mxCell>
        <mxCell id="eX8ZrraKsyN8Ze18W8im-328" value="" style="shape=partialRectangle;html=1;whiteSpace=wrap;connectable=0;strokeColor=inherit;overflow=hidden;fillColor=none;top=0;left=0;bottom=0;right=0;pointerEvents=1;shadow=0;labelBackgroundColor=#CC6600;sketch=0;fillStyle=solid;strokeWidth=1;" vertex="1" parent="eX8ZrraKsyN8Ze18W8im-327">
          <mxGeometry width="30" height="30" as="geometry">
            <mxRectangle width="30" height="30" as="alternateBounds" />
          </mxGeometry>
        </mxCell>
        <mxCell id="eX8ZrraKsyN8Ze18W8im-329" value="" style="shape=table;startSize=0;container=1;collapsible=0;childLayout=tableLayout;shadow=0;labelBackgroundColor=#CC6600;sketch=0;fillStyle=auto;strokeColor=#6D1F00;strokeWidth=1;fillColor=#D66E3C;gradientColor=none;fontColor=#ffffff;swimlaneFillColor=none;" vertex="1" parent="1">
          <mxGeometry x="23" y="376" width="30" height="30" as="geometry" />
        </mxCell>
        <mxCell id="eX8ZrraKsyN8Ze18W8im-330" value="" style="shape=tableRow;horizontal=0;startSize=0;swimlaneHead=0;swimlaneBody=0;strokeColor=inherit;top=0;left=0;bottom=0;right=0;collapsible=0;dropTarget=0;fillColor=none;points=[[0,0.5],[1,0.5]];portConstraint=eastwest;shadow=0;labelBackgroundColor=#CC6600;sketch=0;fillStyle=solid;strokeWidth=1;" vertex="1" parent="eX8ZrraKsyN8Ze18W8im-329">
          <mxGeometry width="30" height="30" as="geometry" />
        </mxCell>
        <mxCell id="eX8ZrraKsyN8Ze18W8im-331" value="" style="shape=partialRectangle;html=1;whiteSpace=wrap;connectable=0;strokeColor=inherit;overflow=hidden;fillColor=none;top=0;left=0;bottom=0;right=0;pointerEvents=1;shadow=0;labelBackgroundColor=#CC6600;sketch=0;fillStyle=solid;strokeWidth=1;" vertex="1" parent="eX8ZrraKsyN8Ze18W8im-330">
          <mxGeometry width="30" height="30" as="geometry">
            <mxRectangle width="30" height="30" as="alternateBounds" />
          </mxGeometry>
        </mxCell>
        <mxCell id="eX8ZrraKsyN8Ze18W8im-332" value="" style="shape=table;startSize=0;container=1;collapsible=0;childLayout=tableLayout;shadow=0;labelBackgroundColor=#CC6600;sketch=0;fillStyle=auto;strokeColor=#6D1F00;strokeWidth=1;fillColor=#a0522d;gradientColor=none;fontColor=#ffffff;swimlaneFillColor=none;" vertex="1" parent="1">
          <mxGeometry x="23" y="406" width="30" height="30" as="geometry" />
        </mxCell>
        <mxCell id="eX8ZrraKsyN8Ze18W8im-333" value="" style="shape=tableRow;horizontal=0;startSize=0;swimlaneHead=0;swimlaneBody=0;strokeColor=inherit;top=0;left=0;bottom=0;right=0;collapsible=0;dropTarget=0;fillColor=none;points=[[0,0.5],[1,0.5]];portConstraint=eastwest;shadow=0;labelBackgroundColor=#CC6600;sketch=0;fillStyle=solid;strokeWidth=1;" vertex="1" parent="eX8ZrraKsyN8Ze18W8im-332">
          <mxGeometry width="30" height="30" as="geometry" />
        </mxCell>
        <mxCell id="eX8ZrraKsyN8Ze18W8im-334" value="" style="shape=partialRectangle;html=1;whiteSpace=wrap;connectable=0;strokeColor=default;overflow=hidden;fillColor=#057621;top=0;left=0;bottom=0;right=0;pointerEvents=1;shadow=0;labelBackgroundColor=#CC6600;sketch=0;fillStyle=solid;strokeWidth=1;startSize=0;gradientColor=none;" vertex="1" parent="eX8ZrraKsyN8Ze18W8im-333">
          <mxGeometry width="30" height="30" as="geometry">
            <mxRectangle width="30" height="30" as="alternateBounds" />
          </mxGeometry>
        </mxCell>
        <mxCell id="eX8ZrraKsyN8Ze18W8im-335" value="" style="shape=table;startSize=0;container=1;collapsible=0;childLayout=tableLayout;shadow=0;labelBackgroundColor=#CC6600;sketch=0;fillStyle=auto;strokeColor=#6D1F00;strokeWidth=1;fillColor=#D66E3C;gradientColor=none;fontColor=#ffffff;swimlaneFillColor=none;" vertex="1" parent="1">
          <mxGeometry x="23" y="436" width="30" height="30" as="geometry" />
        </mxCell>
        <mxCell id="eX8ZrraKsyN8Ze18W8im-336" value="" style="shape=tableRow;horizontal=0;startSize=0;swimlaneHead=0;swimlaneBody=0;strokeColor=inherit;top=0;left=0;bottom=0;right=0;collapsible=0;dropTarget=0;fillColor=none;points=[[0,0.5],[1,0.5]];portConstraint=eastwest;shadow=0;labelBackgroundColor=#CC6600;sketch=0;fillStyle=solid;strokeWidth=1;" vertex="1" parent="eX8ZrraKsyN8Ze18W8im-335">
          <mxGeometry width="30" height="30" as="geometry" />
        </mxCell>
        <mxCell id="eX8ZrraKsyN8Ze18W8im-337" value="" style="shape=partialRectangle;html=1;whiteSpace=wrap;connectable=0;strokeColor=default;overflow=hidden;fillColor=#46d87e;top=0;left=0;bottom=0;right=0;pointerEvents=1;shadow=0;labelBackgroundColor=#CC6600;sketch=0;fillStyle=solid;strokeWidth=1;startSize=0;gradientColor=none;" vertex="1" parent="eX8ZrraKsyN8Ze18W8im-336">
          <mxGeometry width="30" height="30" as="geometry">
            <mxRectangle width="30" height="30" as="alternateBounds" />
          </mxGeometry>
        </mxCell>
        <mxCell id="eX8ZrraKsyN8Ze18W8im-338" value="" style="shape=table;startSize=0;container=1;collapsible=0;childLayout=tableLayout;shadow=0;labelBackgroundColor=#CC6600;sketch=0;fillStyle=auto;strokeColor=#6D1F00;strokeWidth=1;fillColor=#a0522d;gradientColor=none;fontColor=#ffffff;swimlaneFillColor=none;" vertex="1" parent="1">
          <mxGeometry x="23" y="466" width="30" height="30" as="geometry" />
        </mxCell>
        <mxCell id="eX8ZrraKsyN8Ze18W8im-339" value="" style="shape=tableRow;horizontal=0;startSize=0;swimlaneHead=0;swimlaneBody=0;strokeColor=default;top=0;left=0;bottom=0;right=0;collapsible=0;dropTarget=0;fillColor=#99950f;points=[[0,0.5],[1,0.5]];portConstraint=eastwest;shadow=0;labelBackgroundColor=#CC6600;sketch=0;fillStyle=solid;strokeWidth=1;gradientColor=none;" vertex="1" parent="eX8ZrraKsyN8Ze18W8im-338">
          <mxGeometry width="30" height="30" as="geometry" />
        </mxCell>
        <mxCell id="eX8ZrraKsyN8Ze18W8im-340" value="" style="shape=partialRectangle;html=1;whiteSpace=wrap;connectable=0;strokeColor=inherit;overflow=hidden;fillColor=none;top=0;left=0;bottom=0;right=0;pointerEvents=1;shadow=0;labelBackgroundColor=#CC6600;sketch=0;fillStyle=solid;strokeWidth=1;" vertex="1" parent="eX8ZrraKsyN8Ze18W8im-339">
          <mxGeometry width="30" height="30" as="geometry">
            <mxRectangle width="30" height="30" as="alternateBounds" />
          </mxGeometry>
        </mxCell>
        <mxCell id="eX8ZrraKsyN8Ze18W8im-341" value="" style="shape=table;startSize=0;container=1;collapsible=0;childLayout=tableLayout;shadow=0;labelBackgroundColor=#CC6600;sketch=0;fillStyle=solid;strokeColor=#0f0f0f;strokeWidth=1;fillColor=#f5f170;gradientColor=none;fontColor=default;swimlaneFillColor=none;" vertex="1" parent="1">
          <mxGeometry x="23" y="496" width="30" height="30" as="geometry" />
        </mxCell>
        <mxCell id="eX8ZrraKsyN8Ze18W8im-342" value="" style="shape=tableRow;horizontal=0;startSize=0;swimlaneHead=0;swimlaneBody=0;strokeColor=inherit;top=0;left=0;bottom=0;right=0;collapsible=0;dropTarget=0;fillColor=none;points=[[0,0.5],[1,0.5]];portConstraint=eastwest;shadow=0;labelBackgroundColor=#CC6600;sketch=0;fillStyle=solid;strokeWidth=1;" vertex="1" parent="eX8ZrraKsyN8Ze18W8im-341">
          <mxGeometry width="30" height="30" as="geometry" />
        </mxCell>
        <mxCell id="eX8ZrraKsyN8Ze18W8im-343" value="" style="shape=partialRectangle;html=1;whiteSpace=wrap;connectable=0;strokeColor=inherit;overflow=hidden;fillColor=none;top=0;left=0;bottom=0;right=0;pointerEvents=1;shadow=0;labelBackgroundColor=#CC6600;sketch=0;fillStyle=solid;strokeWidth=1;" vertex="1" parent="eX8ZrraKsyN8Ze18W8im-342">
          <mxGeometry width="30" height="30" as="geometry">
            <mxRectangle width="30" height="30" as="alternateBounds" />
          </mxGeometry>
        </mxCell>
        <mxCell id="eX8ZrraKsyN8Ze18W8im-345" value="" style="endArrow=classic;html=1;rounded=0;entryX=-0.064;entryY=-0.07;entryDx=0;entryDy=0;entryPerimeter=0;exitX=1.121;exitY=-0.142;exitDx=0;exitDy=0;exitPerimeter=0;" edge="1" parent="1" source="eX8ZrraKsyN8Ze18W8im-298" target="eX8ZrraKsyN8Ze18W8im-330">
          <mxGeometry width="50" height="50" relative="1" as="geometry">
            <mxPoint x="-210" y="600" as="sourcePoint" />
            <mxPoint x="-160" y="550" as="targetPoint" />
          </mxGeometry>
        </mxCell>
        <mxCell id="eX8ZrraKsyN8Ze18W8im-346" value="" style="endArrow=classic;html=1;rounded=0;exitX=0.927;exitY=0.033;exitDx=0;exitDy=0;exitPerimeter=0;entryX=0;entryY=0;entryDx=0;entryDy=0;" edge="1" parent="1" source="eX8ZrraKsyN8Ze18W8im-304" target="eX8ZrraKsyN8Ze18W8im-335">
          <mxGeometry width="50" height="50" relative="1" as="geometry">
            <mxPoint x="-210" y="600" as="sourcePoint" />
            <mxPoint x="-160" y="550" as="targetPoint" />
          </mxGeometry>
        </mxCell>
        <mxCell id="eX8ZrraKsyN8Ze18W8im-347" value="" style="endArrow=classic;html=1;rounded=0;exitX=1.17;exitY=1.173;exitDx=0;exitDy=0;exitPerimeter=0;entryX=-0.091;entryY=-0.091;entryDx=0;entryDy=0;entryPerimeter=0;" edge="1" parent="1" source="eX8ZrraKsyN8Ze18W8im-313" target="eX8ZrraKsyN8Ze18W8im-342">
          <mxGeometry width="50" height="50" relative="1" as="geometry">
            <mxPoint x="-210" y="600" as="sourcePoint" />
            <mxPoint x="-160" y="550" as="targetPoint" />
          </mxGeometry>
        </mxCell>
        <mxCell id="eX8ZrraKsyN8Ze18W8im-348" value="" style="shape=table;startSize=0;container=1;collapsible=0;childLayout=tableLayout;shadow=0;labelBackgroundColor=#CC6600;sketch=0;fillStyle=auto;strokeColor=#6D1F00;strokeWidth=1;fillColor=#0669ea;gradientColor=none;fontColor=#ffffff;swimlaneFillColor=none;" vertex="1" parent="1">
          <mxGeometry x="149" y="406" width="30" height="30" as="geometry" />
        </mxCell>
        <mxCell id="eX8ZrraKsyN8Ze18W8im-349" value="" style="shape=tableRow;horizontal=0;startSize=0;swimlaneHead=0;swimlaneBody=0;strokeColor=inherit;top=0;left=0;bottom=0;right=0;collapsible=0;dropTarget=0;fillColor=none;points=[[0,0.5],[1,0.5]];portConstraint=eastwest;shadow=0;labelBackgroundColor=#CC6600;sketch=0;fillStyle=solid;strokeWidth=1;" vertex="1" parent="eX8ZrraKsyN8Ze18W8im-348">
          <mxGeometry width="30" height="30" as="geometry" />
        </mxCell>
        <mxCell id="eX8ZrraKsyN8Ze18W8im-350" value="" style="shape=partialRectangle;html=1;whiteSpace=wrap;connectable=0;strokeColor=inherit;overflow=hidden;fillColor=none;top=0;left=0;bottom=0;right=0;pointerEvents=1;shadow=0;labelBackgroundColor=#CC6600;sketch=0;fillStyle=solid;strokeWidth=1;" vertex="1" parent="eX8ZrraKsyN8Ze18W8im-349">
          <mxGeometry width="30" height="30" as="geometry">
            <mxRectangle width="30" height="30" as="alternateBounds" />
          </mxGeometry>
        </mxCell>
        <mxCell id="eX8ZrraKsyN8Ze18W8im-351" value="" style="shape=table;startSize=0;container=1;collapsible=0;childLayout=tableLayout;shadow=0;labelBackgroundColor=#CC6600;sketch=0;fillStyle=auto;strokeColor=#6D1F00;strokeWidth=1;fillColor=#6adcf0;gradientColor=none;fontColor=#ffffff;swimlaneFillColor=none;" vertex="1" parent="1">
          <mxGeometry x="149" y="436" width="30" height="30" as="geometry" />
        </mxCell>
        <mxCell id="eX8ZrraKsyN8Ze18W8im-352" value="" style="shape=tableRow;horizontal=0;startSize=0;swimlaneHead=0;swimlaneBody=0;strokeColor=inherit;top=0;left=0;bottom=0;right=0;collapsible=0;dropTarget=0;fillColor=none;points=[[0,0.5],[1,0.5]];portConstraint=eastwest;shadow=0;labelBackgroundColor=#CC6600;sketch=0;fillStyle=solid;strokeWidth=1;" vertex="1" parent="eX8ZrraKsyN8Ze18W8im-351">
          <mxGeometry width="30" height="30" as="geometry" />
        </mxCell>
        <mxCell id="eX8ZrraKsyN8Ze18W8im-353" value="" style="shape=partialRectangle;html=1;whiteSpace=wrap;connectable=0;strokeColor=inherit;overflow=hidden;fillColor=none;top=0;left=0;bottom=0;right=0;pointerEvents=1;shadow=0;labelBackgroundColor=#CC6600;sketch=0;fillStyle=solid;strokeWidth=1;" vertex="1" parent="eX8ZrraKsyN8Ze18W8im-352">
          <mxGeometry width="30" height="30" as="geometry">
            <mxRectangle width="30" height="30" as="alternateBounds" />
          </mxGeometry>
        </mxCell>
        <mxCell id="eX8ZrraKsyN8Ze18W8im-354" value="" style="endArrow=none;html=1;rounded=0;exitX=1.1;exitY=-0.168;exitDx=0;exitDy=0;exitPerimeter=0;" edge="1" parent="1" source="eX8ZrraKsyN8Ze18W8im-330">
          <mxGeometry width="50" height="50" relative="1" as="geometry">
            <mxPoint x="-420" y="480" as="sourcePoint" />
            <mxPoint x="140" y="420" as="targetPoint" />
          </mxGeometry>
        </mxCell>
        <mxCell id="eX8ZrraKsyN8Ze18W8im-356" value="" style="endArrow=none;html=1;rounded=0;" edge="1" parent="1">
          <mxGeometry width="50" height="50" relative="1" as="geometry">
            <mxPoint x="70" y="500" as="sourcePoint" />
            <mxPoint x="140" y="440" as="targetPoint" />
          </mxGeometry>
        </mxCell>
        <mxCell id="eX8ZrraKsyN8Ze18W8im-358" value="" style="shape=curlyBracket;whiteSpace=wrap;html=1;rounded=1;labelPosition=left;verticalLabelPosition=middle;align=right;verticalAlign=middle;shadow=0;labelBackgroundColor=#CC6600;sketch=0;fillStyle=solid;strokeColor=#0f0f0f;strokeWidth=1;fillColor=#f5f170;gradientColor=none;rotation=90;" vertex="1" parent="1">
          <mxGeometry x="-368" y="-113" width="20" height="250" as="geometry" />
        </mxCell>
        <mxCell id="eX8ZrraKsyN8Ze18W8im-360" value="&lt;font style=&quot;font-size: 15px;&quot;&gt;卷积层&lt;/font&gt;" style="text;html=1;align=center;verticalAlign=middle;resizable=0;points=[];autosize=1;strokeColor=none;fillColor=none;" vertex="1" parent="1">
          <mxGeometry x="-393" y="-28" width="70" height="30" as="geometry" />
        </mxCell>
        <mxCell id="eX8ZrraKsyN8Ze18W8im-361" value="" style="shape=curlyBracket;whiteSpace=wrap;html=1;rounded=1;labelPosition=left;verticalLabelPosition=middle;align=right;verticalAlign=middle;shadow=0;labelBackgroundColor=#CC6600;sketch=0;fillStyle=solid;strokeColor=#0f0f0f;strokeWidth=1;fillColor=#f5f170;gradientColor=none;rotation=90;" vertex="1" parent="1">
          <mxGeometry x="-53.9" y="-94.72" width="20" height="213.44" as="geometry" />
        </mxCell>
        <mxCell id="eX8ZrraKsyN8Ze18W8im-362" value="&lt;font style=&quot;font-size: 15px;&quot;&gt;池化层&lt;/font&gt;" style="text;html=1;align=center;verticalAlign=middle;resizable=0;points=[];autosize=1;strokeColor=none;fillColor=none;" vertex="1" parent="1">
          <mxGeometry x="-75.62" y="-28" width="70" height="30" as="geometry" />
        </mxCell>
        <mxCell id="eX8ZrraKsyN8Ze18W8im-363" value="" style="shape=curlyBracket;whiteSpace=wrap;html=1;rounded=1;labelPosition=left;verticalLabelPosition=middle;align=right;verticalAlign=middle;shadow=0;labelBackgroundColor=#CC6600;sketch=0;fillStyle=solid;strokeColor=#0f0f0f;strokeWidth=1;fillColor=#f5f170;gradientColor=none;rotation=90;" vertex="1" parent="1">
          <mxGeometry x="-635" y="-113" width="20" height="250" as="geometry" />
        </mxCell>
        <mxCell id="eX8ZrraKsyN8Ze18W8im-364" value="&lt;font style=&quot;font-size: 15px;&quot;&gt;文本表征&lt;/font&gt;" style="text;html=1;align=center;verticalAlign=middle;resizable=0;points=[];autosize=1;strokeColor=none;fillColor=none;" vertex="1" parent="1">
          <mxGeometry x="-665" y="-28" width="80" height="30" as="geometry" />
        </mxCell>
        <mxCell id="eX8ZrraKsyN8Ze18W8im-365" value="" style="endArrow=none;html=1;rounded=0;fontSize=15;" edge="1" parent="1">
          <mxGeometry width="50" height="50" relative="1" as="geometry">
            <mxPoint x="-510" y="310" as="sourcePoint" />
            <mxPoint x="-480" y="80" as="targetPoint" />
          </mxGeometry>
        </mxCell>
        <mxCell id="eX8ZrraKsyN8Ze18W8im-366" value="" style="endArrow=none;html=1;rounded=0;fontSize=15;exitX=1;exitY=0.5;exitDx=0;exitDy=0;" edge="1" parent="1">
          <mxGeometry width="50" height="50" relative="1" as="geometry">
            <mxPoint x="-511.9999999999998" y="380.5" as="sourcePoint" />
            <mxPoint x="-482" y="640" as="targetPoint" />
          </mxGeometry>
        </mxCell>
        <mxCell id="eX8ZrraKsyN8Ze18W8im-367" value="" style="shape=curlyBracket;whiteSpace=wrap;html=1;rounded=1;labelPosition=left;verticalLabelPosition=middle;align=right;verticalAlign=middle;shadow=0;labelBackgroundColor=#CC6600;sketch=0;fillStyle=solid;strokeColor=#0f0f0f;strokeWidth=1;fillColor=#f5f170;gradientColor=none;rotation=90;" vertex="1" parent="1">
          <mxGeometry x="133.36" y="-46.36" width="20" height="116.72" as="geometry" />
        </mxCell>
        <mxCell id="eX8ZrraKsyN8Ze18W8im-368" value="&lt;font style=&quot;font-size: 15px;&quot;&gt;全连接层&lt;/font&gt;" style="text;html=1;align=center;verticalAlign=middle;resizable=0;points=[];autosize=1;strokeColor=none;fillColor=none;" vertex="1" parent="1">
          <mxGeometry x="103.36" y="-28" width="80" height="30" as="geometry" />
        </mxCell>
      </root>
    </mxGraphModel>
  </diagram>
</mxfile>
